<svg xmlns="http://www.w3.org/2000/svg" viewBox="0 0 139.29 131.799">
  <defs>
    <style>
      .cls-1 {
        fill: #d41116;
      }
    </style>
  </defs>
  <title>swirl</title>
  <g id="Layer_2" data-name="Layer 2">
    <g id="Layer_1-2" data-name="Layer 1">
      <path class="cls-1" d="M69.645,131.8A69.724,69.724,0,0,1,0,62.154a62.154,62.154,0,0,1,124.308,0,54.664,54.664,0,1,1-109.327,0,47.173,47.173,0,0,1,94.346,0,39.683,39.683,0,0,1-79.365,0,32.192,32.192,0,0,1,64.384,0,24.7,24.7,0,0,1-49.4,0,17.21,17.21,0,0,1,34.42,0,9.72,9.72,0,1,1-19.439,0,2.229,2.229,0,1,1,4.458,0,5.262,5.262,0,1,0,10.523,0,12.752,12.752,0,0,0-25.5,0,20.243,20.243,0,0,0,40.486,0,27.734,27.734,0,0,0-55.468,0,35.225,35.225,0,0,0,70.449,0,42.715,42.715,0,0,0-85.43,0,50.206,50.206,0,0,0,100.411,0,57.7,57.7,0,0,0-115.392,0,65.187,65.187,0,0,0,130.374,0,2.229,2.229,0,1,1,4.458,0A69.724,69.724,0,0,1,69.645,131.8Z"/>
    </g>
  </g>
</svg>
