<svg xmlns="http://www.w3.org/2000/svg" viewBox="0 0 227 178.38"><style>.st0{fill:#e5ecf4}.st1{fill:#a6e2fa}</style><g id="Layer_1_копія"><path id="XMLID_7_" class="st0" d="M135.23 139.75l-17.36 3.91c3.02 3.47 4.02 8.09 2.47 11.94-1.39 3.45-4.38 5.09-5.32 5.58-4.09 2.15-8.13 1.23-9.4.94-8.9-2.02-12.46-12.03-12.76-12.91-5.33 1.39-10.66 2.77-15.98 4.16 6.58 20.9 28.79 29.7 43.5 22.58 11.41-5.53 18.31-20.64 14.85-36.2z"/><path id="XMLID_6_" class="st0" d="M34.31 169.27l-21.35-32.76c-1.95-4.13-.84-9.03 2.58-11.78 3.72-2.99 9.3-2.73 12.88.74C52.96 91.85 77.5 58.23 102.04 24.6l-4.79-6.99c-1.95-4.33-.53-9.38 3.19-11.9 3.31-2.24 7.85-2.07 11.17.49 27.49 42.7 54.97 85.4 82.46 128.1 1.52 4.95-.87 10.04-5.03 11.78-3.28 1.37-7.28.5-10.06-2.21-2.21-2.58-4.42-5.15-6.63-7.73L50.88 160.81c1.95 5.65-1.14 11.47-5.89 12.88-3.77 1.12-8.22-.62-10.68-4.42z"/><path id="XMLID_5_" class="st0" d="M194.23 32.11l-23.69 16.01c-3.82 2.58-4.83 7.81-2.25 11.63 2.58 3.82 7.81 4.83 11.63 2.25l23.69-16.01c3.82-2.58 4.83-7.81 2.25-11.63-2.58-3.82-7.81-4.83-11.63-2.25z"/><path id="XMLID_4_" class="st0" d="M169.39 3.08l-18.06 22.17c-2.91 3.57-2.37 8.88 1.2 11.79 3.57 2.91 8.88 2.37 11.79-1.2l18.06-22.17c2.91-3.57 2.37-8.88-1.2-11.79-3.57-2.92-8.88-2.38-11.79 1.2z"/><path id="XMLID_2_" class="st0" d="M215.95 63.39l-27.09 9.14c-4.37 1.47-6.73 6.25-5.26 10.62 1.47 4.37 6.25 6.73 10.62 5.26l27.09-9.14c4.37-1.47 6.73-6.25 5.26-10.62-1.48-4.36-6.26-6.73-10.62-5.26z"/><path id="XMLID_1_" class="st0" d="M81.62 101.23l12.3 20.36c.59.98 1.88 1.3 2.86.71l11.02-6.66c.48-.29 1.05-.37 1.59-.24l13.18 3.37c1.81.46 3.26-1.5 2.3-3.1L101.3 76.66c-.96-1.59-3.36-1.22-3.81.58l-3.16 12.81c-.13.52-.45.97-.91 1.26l-11.15 7.08c-.94.61-1.23 1.87-.65 2.84z"/></g><g id="Layer_1"><path id="XMLID_57_" class="st1" d="M123.23 139.75l-17.36 3.91c3.02 3.47 4.02 8.09 2.47 11.94-1.39 3.45-4.38 5.09-5.32 5.58-4.09 2.15-8.13 1.23-9.4.94-8.9-2.02-12.46-12.03-12.76-12.91-5.33 1.39-10.66 2.77-15.98 4.16 6.58 20.9 28.79 29.7 43.5 22.58 11.41-5.53 18.31-20.64 14.85-36.2z"/><path id="XMLID_21_" class="st1" d="M22.31 169.27L.96 136.51c-1.95-4.13-.84-9.03 2.58-11.78 3.72-2.99 9.3-2.73 12.88.74C40.96 91.85 65.5 58.23 90.04 24.6l-4.79-6.99c-1.95-4.33-.53-9.38 3.19-11.9 3.31-2.24 7.85-2.07 11.17.49 27.49 42.7 54.97 85.4 82.46 128.1 1.52 4.95-.87 10.04-5.03 11.78-3.28 1.37-7.28.5-10.06-2.21-2.21-2.58-4.42-5.15-6.63-7.73L38.88 160.81c1.95 5.65-1.14 11.47-5.89 12.88-3.77 1.12-8.22-.62-10.68-4.42z"/><path id="XMLID_28_" class="st1" d="M182.23 32.11l-23.69 16.01c-3.82 2.58-4.83 7.81-2.25 11.63 2.58 3.82 7.81 4.83 11.63 2.25l23.69-16.01c3.82-2.58 4.83-7.81 2.25-11.63-2.58-3.82-7.81-4.83-11.63-2.25z"/><path id="XMLID_33_" class="st1" d="M157.39 3.08l-18.06 22.17c-2.91 3.57-2.37 8.88 1.2 11.79 3.57 2.91 8.88 2.37 11.79-1.2l18.06-22.17c2.91-3.57 2.37-8.88-1.2-11.79-3.57-2.92-8.88-2.38-11.79 1.2z"/><path id="XMLID_53_" class="st1" d="M203.95 63.39l-27.09 9.14c-4.37 1.47-6.73 6.25-5.26 10.62 1.47 4.37 6.25 6.73 10.62 5.26l27.09-9.14c4.37-1.47 6.73-6.25 5.26-10.62-1.48-4.36-6.26-6.73-10.62-5.26z"/><path id="XMLID_3_" d="M69.62 101.23l12.3 20.36c.59.98 1.88 1.3 2.86.71l11.02-6.66c.48-.29 1.05-.37 1.59-.24l13.18 3.37c1.81.46 3.26-1.5 2.3-3.1l-23.56-39c-.96-1.59-3.36-1.22-3.81.58l-3.16 12.81c-.13.52-.45.97-.91 1.26L70.28 98.4c-.95.6-1.24 1.86-.66 2.83z" fill="#fff"/></g></svg>