<svg xmlns="http://www.w3.org/2000/svg" viewBox="0 0 285.98 168.67"><style>.st0{fill:#e5ecf4}.st1{fill:#a6e2fa}.st2{fill:#fff}</style><g id="Layer_1_копія"><path id="XMLID_8_" class="st0" d="M28.38 168.67h196.25c14.57 0 21.86-22.66 11.56-35.91L137.8 6.16c-6.4-8.23-16.77-8.21-23.15.04L16.79 132.8c-10.26 13.27-2.95 35.87 11.59 35.87z"/><path id="XMLID_7_" class="st0" d="M127.44 168.67h146.33c10.86 0 16.3-16.89 8.62-26.78L209.02 47.5c-4.77-6.14-12.51-6.12-17.26.03l-72.97 94.39c-7.64 9.9-2.2 26.75 8.65 26.75z"/><circle id="XMLID_6_" class="st0" cx="135.05" cy="98.51" r="24.5"/><path id="XMLID_3_" class="st0" d="M173.79 139.68l-34.87-28.27c-2.36-1.91-2.72-5.4-.81-7.75 1.91-2.36 5.4-2.72 7.75-.81l34.87 28.27c2.36 1.91 2.72 5.4.81 7.75-1.91 2.35-5.4 2.72-7.75.81z"/></g><g id="Layer_1"><path id="XMLID_2_" class="st1" d="M16.38 168.67h196.25c14.57 0 21.86-22.66 11.56-35.91L125.8 6.16c-6.4-8.23-16.77-8.21-23.15.04L4.79 132.8c-10.26 13.27-2.95 35.87 11.59 35.87z"/><path id="XMLID_1_" class="st1" d="M115.44 168.67h146.33c10.86 0 16.3-16.89 8.62-26.78L197.02 47.5c-4.77-6.14-12.51-6.12-17.26.03l-72.97 94.39c-7.64 9.9-2.2 26.75 8.65 26.75z"/><circle id="XMLID_4_" class="st2" cx="123.05" cy="98.51" r="24.5"/><path id="XMLID_5_" class="st2" d="M161.79 139.68l-34.87-28.27c-2.36-1.91-2.72-5.4-.81-7.75 1.91-2.36 5.4-2.72 7.75-.81l34.87 28.27c2.36 1.91 2.72 5.4.81 7.75-1.91 2.35-5.4 2.72-7.75.81z"/></g></svg>