<svg xmlns="http://www.w3.org/2000/svg" viewBox="0 0 158.5 196.69"><style>.st0{fill:#e5ecf4}</style><g id="Layer_1_копія"><path id="XMLID_3_" class="st0" d="M63.86 178.4c-.12-2.09.22-5.26-.64-10.43-.18-1.09-.49-2.28-1.03-3.67-.96-2.5-3.28-5.44-7.88-11.23-3.81-4.79-6.76-8.19-6.81-8.24-5.19-5.98-9.16-12.51-17.08-25.57-10.24-16.87-4.29-9.31-13.86-25.69-3.11-5.32-5.65-9.38-4.06-11.71 1.78-2.6 7.91-1.82 12.07-.24 6.76 2.57 9.82 7.81 14.93 15.05 7.33 10.39 15.62 22.13 18.04 21.15 4.16-1.7-4.31-40.71-13.26-62.12-3.36-8.04-3.74-17.1-6.93-25.21-.58-1.48-2.47-6.15-.72-10.63.33-.85 1.39-3.55 4.06-4.66 2.16-.89 4.23-.28 4.78-.12 5.91 1.74 8.44 12.31 8.96 14.46C59.17 49 69.52 75.07 72.35 74.7c1.78-.23 1.49-11.05 1.91-32.73.26-13.3.66-24.17.96-31.3C74.26 5.13 77.82.51 81.43.04c3.89-.51 8.91 3.62 8.72 9.8.08 7.7.33 18.78 1.08 32.14 1.26 22.45 1.93 33.68 4.3 34.05 2.47.38 7.61-9.52 19.47-57.94 1.42-3.88 5.64-5.85 9.2-4.66 3.88 1.3 6.04 6.04 4.18 10.15-1.94 7.68-4.61 19.03-7.17 32.97-3.28 17.84-4.87 26.78-2.51 27.84 2.21.99 8.49-4.48 27.36-36.2 3.43-3.9 8.96-3.61 11.23-.84 1.73 2.12 1.68 5.82-.48 8.72-8.04 15.65-16.09 31.3-24.13 46.95-1.27 7.26-3.45 18.14-7.17 31.18-3.54 12.41-4.08 10.8-5.82 18.42-3.68 16.07-1.88 24.28-8.87 34.26-1.67 2.38-3.22 4.55-6.09 6.45-9.17 6.07-22.13 3.01-30.11-2.15-3.54-2.28-10.41-6.71-10.76-12.78z"/><path id="XMLID_1_" class="st0" d="M91.88 139.48c-4.64-3.24-8.2-6.26-10.7-8.54-4.73-4.31-5.98-6.25-6.54-7.2-1.7-2.87-4.09-6.88-2.8-11.52.95-3.41 3.94-7.4 8.35-7.98 4.97-.65 10.38 3.21 11.84 9.46.32-4.08 2.81-7.59 6.41-9 4.32-1.68 8.17.48 8.64.76 4.17 2.43 4.96 7.03 5.1 7.97.82 5.59-2.96 10.19-5.56 13.36-1.56 1.91-3.51 3.55-7.39 6.83-2.98 2.52-5.55 4.5-7.35 5.86z"/></g><g id="Layer_1"><path id="XMLID_2_" d="M51.86 178.4c-.12-2.09.22-5.26-.64-10.43-.18-1.09-.49-2.28-1.03-3.67-.96-2.5-3.28-5.44-7.88-11.23-3.81-4.79-6.76-8.19-6.81-8.24-5.19-5.98-9.16-12.51-17.08-25.57-10.24-16.87-4.29-9.31-13.86-25.69C1.44 88.26-1.1 84.2.49 81.88c1.78-2.6 7.91-1.82 12.07-.24 6.76 2.57 9.82 7.81 14.93 15.05 7.33 10.39 15.62 22.13 18.04 21.15 4.16-1.7-4.31-40.71-13.26-62.12-3.36-8.04-3.74-17.1-6.93-25.21-.58-1.48-2.47-6.15-.72-10.63.33-.85 1.39-3.55 4.06-4.66 2.16-.89 4.23-.28 4.78-.12 5.91 1.74 8.44 12.31 8.96 14.46 4.74 19.46 15.09 45.53 17.92 45.16 1.78-.23 1.49-11.05 1.91-32.73.26-13.3.66-24.17.96-31.3C62.25 5.15 65.81.53 69.42.06c3.89-.51 8.91 3.62 8.72 9.8.08 7.7.33 18.78 1.08 32.14 1.26 22.45 1.93 33.68 4.3 34.05 2.47.38 7.61-9.52 19.47-57.94 1.42-3.88 5.64-5.85 9.2-4.66 3.88 1.3 6.04 6.04 4.18 10.15-1.94 7.68-4.61 19.03-7.17 32.97-3.28 17.84-4.87 26.78-2.51 27.84 2.21.99 8.49-4.48 27.36-36.2 3.43-3.9 8.96-3.61 11.23-.84 1.73 2.12 1.68 5.82-.48 8.72-8.04 15.65-16.09 31.3-24.13 46.95-1.27 7.26-3.45 18.14-7.17 31.18-3.54 12.41-4.08 10.8-5.82 18.42-3.68 16.07-1.88 24.28-8.87 34.26-1.67 2.38-3.22 4.55-6.09 6.45-9.17 6.07-22.13 3.01-30.11-2.15-3.53-2.3-10.4-6.73-10.75-12.8z" fill="#a6e2fa"/><path id="XMLID_59_" d="M79.88 139.48c-4.64-3.24-8.2-6.26-10.7-8.54-4.73-4.31-5.98-6.25-6.54-7.2-1.7-2.87-4.09-6.88-2.8-11.52.95-3.41 3.94-7.4 8.35-7.98 4.97-.65 10.38 3.21 11.84 9.46.32-4.08 2.81-7.59 6.41-9 4.32-1.68 8.17.48 8.64.76 4.17 2.43 4.96 7.03 5.1 7.97.82 5.59-2.96 10.19-5.56 13.36-1.56 1.91-3.51 3.55-7.39 6.83-2.98 2.52-5.55 4.5-7.35 5.86z" fill="#fff"/></g></svg>