<svg xmlns="http://www.w3.org/2000/svg" viewBox="0 0 1170.2 670" preserveAspectRatio="xMaxYMin slice"><path d="M611.1 670H0v-27.7c28.6-16 59.3-33 89.1-49.1 104.4-56.2 177-124.1 8.6-415.6C20.8 44.7 60.2 0 157.6 0c116.1 0 314.8 63.5 497.6 116.6 219.5 63.7 79.6 357.2-44.1 553.4z" opacity=".3" fill-rule="evenodd" clip-rule="evenodd" fill="#397fd3"/><path d="M1170.2 10.2v228.4c-22.7 10.5-48 16.3-74.7 16.3C996.9 254.9 917 175 917 76.4c0-27.3 6.2-53.3 17.2-76.4H1160c5.6 0 10.2 4.6 10.2 10.2z" opacity=".3" fill="#3f80cc"/></svg>