<?xml version="1.0" standalone="no"?>
<!DOCTYPE svg PUBLIC "-//W3C//DTD SVG 20010904//EN"
 "http://www.w3.org/TR/2001/REC-SVG-20010904/DTD/svg10.dtd">
<svg version="1.0" xmlns="http://www.w3.org/2000/svg"
 width="260.000000pt" height="260.000000pt" viewBox="0 0 260.000000 260.000000"
 preserveAspectRatio="xMidYMid meet">
<metadata>
Created by potrace 1.11, written by Peter Selinger 2001-2013
</metadata>
<g transform="translate(0.000000,260.000000) scale(0.100000,-0.100000)"
fill="#000000" stroke="none">
<path d="M1131 2590 c-779 -110 -1284 -864 -1086 -1622 13 -51 31 -111 40
-132 l17 -40 55 105 c69 131 111 235 119 293 6 40 13 50 59 86 39 30 63 60 90
113 76 147 262 464 335 571 92 134 121 155 189 137 60 -16 143 -80 166 -127
22 -47 19 -111 -26 -564 -17 -173 -34 -407 -37 -520 l-7 -205 -45 -3 c-56 -4
-117 13 -129 37 -6 11 -6 100 0 245 6 126 7 231 4 234 -8 8 -234 -15 -313 -32
-75 -15 -96 -34 -143 -126 -18 -36 -40 -74 -50 -85 -9 -11 -20 -33 -23 -50
-11 -44 -79 -187 -115 -239 -17 -24 -31 -49 -31 -55 0 -22 125 -173 209 -254
181 -171 385 -278 642 -333 118 -26 380 -26 498 0 273 59 474 167 667 360 193
193 301 394 360 667 14 62 18 127 18 249 0 122 -4 187 -18 249 -59 273 -167
474 -360 667 -190 189 -384 296 -646 355 -99 23 -340 33 -439 19z m940 -540
c127 -39 187 -108 196 -225 5 -56 2 -71 -24 -127 -43 -91 -112 -176 -192 -239
-70 -54 -83 -69 -58 -69 26 0 117 -50 157 -87 57 -51 90 -122 90 -194 0 -62
-31 -177 -59 -218 -10 -14 -38 -57 -62 -95 -68 -109 -214 -208 -350 -241 -119
-28 -229 -14 -299 36 -75 55 -101 128 -59 170 29 29 94 22 143 -16 48 -36 113
-43 192 -20 81 23 145 66 205 138 69 83 91 130 97 208 4 65 4 67 -34 108 -56
63 -105 84 -189 83 -88 -1 -246 -36 -261 -57 -7 -9 -43 -98 -79 -198 -75 -203
-94 -244 -122 -270 -27 -24 -47 -14 -81 41 -41 65 -45 85 -27 129 9 21 23 60
32 87 17 56 211 542 307 767 66 156 74 185 61 225 -6 19 0 25 52 44 113 43
264 51 364 20z"/>
<path d="M1881 1897 c-27 -9 -37 -20 -43 -46 -5 -18 -20 -50 -32 -70 -57 -90
-175 -356 -163 -368 7 -6 149 28 181 44 47 24 169 158 219 241 61 100 67 133
34 166 -42 42 -128 57 -196 33z"/>
<path d="M928 1893 c-30 -36 -96 -140 -148 -235 -29 -53 -67 -112 -84 -130
-31 -33 -106 -157 -106 -176 0 -10 33 -5 187 23 59 12 88 13 102 6 17 -9 20
-7 25 17 14 65 47 325 53 415 6 99 1 114 -29 80z"/>
</g>
</svg>
