<svg width="18" height="18" viewBox="0 0 18 18" fill="none" xmlns="http://www.w3.org/2000/svg">
<path fill-rule="evenodd" clip-rule="evenodd" d="M14.0001 9.11865C14.0001 8.74676 13.9667 8.38918 13.9048 8.0459H8.96533V10.0746H11.7879C11.6663 10.7302 11.2968 11.2856 10.7413 11.6575V12.9734H12.4363C13.428 12.0604 14.0001 10.7159 14.0001 9.11865Z" fill="#4285F4"/>
<path fill-rule="evenodd" clip-rule="evenodd" d="M8.96603 14.2422C10.3821 14.2422 11.5692 13.7726 12.437 12.9716L10.742 11.6557C10.2724 11.9704 9.67166 12.1563 8.96603 12.1563C7.60006 12.1563 6.44387 11.2338 6.03146 9.99414H4.2793V11.353C5.14227 13.067 6.91588 14.2422 8.96603 14.2422Z" fill="#34A853"/>
<path fill-rule="evenodd" clip-rule="evenodd" d="M6.03167 9.99628C5.92678 9.68161 5.86718 9.34548 5.86718 8.99982C5.86718 8.65415 5.92678 8.31802 6.03167 8.00335V6.64453H4.27951C3.92431 7.35255 3.72168 8.15353 3.72168 8.99982C3.72168 9.8461 3.92431 10.6471 4.27951 11.3551L6.03167 9.99628Z" fill="#FBBC05"/>
<path fill-rule="evenodd" clip-rule="evenodd" d="M8.96603 5.84176C9.73602 5.84176 10.4274 6.10638 10.9709 6.62606L12.4751 5.12183C11.5669 4.27555 10.3797 3.75586 8.96603 3.75586C6.91588 3.75586 5.14227 4.93112 4.2793 6.64514L6.03146 8.00395C6.44387 6.76433 7.60006 5.84176 8.96603 5.84176Z" fill="#EA4335"/>
</svg>
