<?xml version="1.0" encoding="utf-8"?>
<!-- Generator: Adobe Illustrator 24.1.0, SVG Export Plug-In . SVG Version: 6.00 Build 0)  -->
<svg version="1.1" id="Шар_1" xmlns="http://www.w3.org/2000/svg" xmlns:xlink="http://www.w3.org/1999/xlink" x="0px" y="0px"
	 viewBox="0 0 18 18" style="enable-background:new 0 0 18 18;" xml:space="preserve">
<style type="text/css">
	.st0{fill:#FFFFFF;}
	.st1{fill:url(#SVGID_1_);}
</style>
<rect class="st0" width="18" height="18"/>
<linearGradient id="SVGID_1_" gradientUnits="userSpaceOnUse" x1="9" y1="6.0188" x2="9" y2="16.4312" gradientTransform="matrix(1 0 0 -1 0 20)">
	<stop  offset="0" style="stop-color:#EFC119"/>
	<stop  offset="0.3314" style="stop-color:#92C84E"/>
	<stop  offset="0.4859" style="stop-color:#71BF5B"/>
	<stop  offset="0.7506" style="stop-color:#15B158"/>
	<stop  offset="0.903" style="stop-color:#23AC69"/>
	<stop  offset="1" style="stop-color:#23AC69"/>
</linearGradient>
<path class="st1" d="M1.7,8.3l6.9-4.6c0.3-0.2,0.7-0.2,1,0l6.9,4.6c0.3,0.1,0.4,0.5,0.3,0.7c-0.1,0.1-0.1,0.2-0.3,0.3l-0.9,0.6
	C13.2,6.3,8.5,5.2,4.9,7.5C4,8.1,3.2,8.9,2.6,9.9L1.6,9.3C1.4,9.1,1.3,8.8,1.4,8.5C1.5,8.4,1.6,8.3,1.7,8.3z M9,8.2
	c-2,0-3.8,1-4.8,2.7L5.7,12c1.1-1.8,3.4-2.4,5.2-1.3c0.5,0.3,1,0.8,1.3,1.3l1.6-1.1C12.8,9.2,11,8.2,9,8.2z M9,12.1
	c-0.7,0-1.3,0.4-1.7,1l1.1,0.7C8.5,13.9,8.8,14,9,14c0.2,0,0.4-0.1,0.6-0.2l1.1-0.7C10.3,12.4,9.7,12.1,9,12.1z"/>
</svg>
