<svg width="25" height="25" viewBox="0 0 25 25" fill="none" xmlns="http://www.w3.org/2000/svg">
<path d="M6.00324 13.5849C6.03452 13.5069 6.34752 12.3041 6.36945 12.2227C5.88079 11.4874 5.33796 9.07955 5.75433 7.12509C6.20351 4.25739 9.24249 2.84767 12.1117 2.84767V2.84233C15.704 2.84462 18.393 4.84333 18.3959 8.28552C18.3981 10.9798 16.775 14.5412 14.0034 14.5412C14.0027 14.5412 14.0021 14.5412 14.0013 14.5412C13.0122 14.5412 11.7598 14.0926 11.4314 13.652C11.0524 13.1443 10.9593 12.5177 11.1596 11.8483C11.6503 10.2818 12.2761 8.4053 12.3492 7.15408C12.4169 5.97324 11.579 5.20496 10.4924 5.20496C9.6747 5.20496 8.61269 5.67989 8.0834 7.01447C7.64623 8.12321 7.65558 9.28402 8.11201 10.5629C8.28996 11.0628 7.32313 14.3219 7.01337 15.3831C6.24376 18.0195 5.19014 21.3551 5.4154 23.2126L5.63284 25L6.72498 23.5687C8.23637 21.5902 9.79906 16.4724 10.2154 15.2271C11.4464 16.8213 14.0099 16.8671 14.3088 16.8671C17.9799 16.8671 22.1427 13.2217 22.0246 8.14819C21.921 3.69892 18.6648 0 12.814 0V0.00572207C7.24874 0.00572207 4.00053 2.97623 3.20535 6.72951C2.47713 10.2097 4.09666 12.8584 6.00324 13.5849Z" fill="white"/>
</svg>
