<svg width="25" height="25" viewBox="0 0 25 25" fill="none" xmlns="http://www.w3.org/2000/svg">
<g clip-path="url(#clip0)">
<path d="M24.4335 4.62804C24.0407 4.80224 23.637 4.94925 23.2244 5.06861C23.7128 4.51619 24.0853 3.86619 24.3126 3.1549C24.3636 2.99547 24.3107 2.82095 24.1797 2.71668C24.0488 2.61232 23.867 2.59982 23.7228 2.68522C22.8466 3.2049 21.9013 3.57837 20.9101 3.79676C19.9116 2.82111 18.5555 2.26587 17.1536 2.26587C14.1943 2.26587 11.7867 4.67337 11.7867 7.63256C11.7867 7.86562 11.8015 8.0974 11.8307 8.32594C8.15848 8.00353 4.74453 6.19861 2.40018 3.32288C2.31663 3.22038 2.18792 3.16514 2.05615 3.17571C1.92429 3.18603 1.80582 3.26038 1.73921 3.37466C1.26373 4.19055 1.01236 5.12369 1.01236 6.07312C1.01236 7.36627 1.47405 8.5932 2.28961 9.55191C2.04163 9.46602 1.80098 9.35869 1.57131 9.23119C1.448 9.16256 1.29752 9.16361 1.17502 9.23385C1.05244 9.30409 0.975582 9.43328 0.972356 9.57449C0.971791 9.59828 0.971791 9.62207 0.971791 9.64619C0.971791 11.5764 2.01066 13.3142 3.59897 14.2614C3.46252 14.2478 3.32615 14.228 3.19066 14.2021C3.05098 14.1755 2.90736 14.2244 2.81316 14.3309C2.71881 14.4374 2.6876 14.5858 2.73107 14.7213C3.31897 16.5567 4.8326 17.9068 6.66244 18.3184C5.14477 19.269 3.40921 19.7669 1.58728 19.7669C1.20711 19.7669 0.824775 19.7446 0.450582 19.7003C0.264695 19.6782 0.0869526 19.788 0.0236461 19.9647C-0.0396603 20.1416 0.0274365 20.3388 0.185582 20.4401C2.52615 21.9409 5.23252 22.7341 8.01195 22.7341C13.476 22.7341 16.8941 20.1575 18.7994 17.9959C21.1752 15.3007 22.5378 11.7332 22.5378 8.20828C22.5378 8.06103 22.5355 7.91232 22.531 7.76409C23.4683 7.05788 24.2753 6.2032 24.932 5.22087C25.0318 5.07167 25.021 4.8745 24.9054 4.73716C24.79 4.59974 24.5977 4.5553 24.4335 4.62804Z" fill="white"/>
</g>
<defs>
<clipPath id="clip0">
<rect width="25" height="25" fill="white"/>
</clipPath>
</defs>
</svg>
