<svg width="130" height="130" viewBox="0 0 130 130" fill="none" xmlns="http://www.w3.org/2000/svg">
<circle cx="65" cy="65" r="64.5" stroke="white"/>
<path d="M69.3594 62.801H66.2656V66.2385H69.3594V62.801ZM68.5156 65.301H67.1094V63.7385H68.5156V65.301Z" fill="white"/>
<path d="M69.3594 67.8011H66.2656V71.2386H69.3594V67.8011ZM68.5156 70.3011H67.1094V68.7386H68.5156V70.3011Z" fill="white"/>
<path d="M69.3594 76.2387V72.8011H66.2656V76.2387H69.3594ZM67.1094 73.7386H68.5156V75.3012H67.1094V73.7386Z" fill="white"/>
<path d="M80.6094 82.801V46.2614L68.5156 52.9801V60.301H64.8594V51.2385H66.5469V47.801H49.3906V51.2385H50.5156V82.801H47V83.7385H83V82.801H80.6094ZM79.7656 55.301H73.8594V53.7385H79.7656V55.301ZM73.8594 56.2385H79.7656V57.801H73.8594V56.2385ZM73.8594 58.7385H79.7656V60.301H73.8594V58.7385ZM73.8594 61.2385H79.7656V62.801H73.8594V61.2385ZM73.8594 63.7385H79.7656V65.301H73.8594V63.7385ZM73.8594 66.2385H79.7656V67.801H73.8594V66.2385ZM73.8594 68.7385H79.7656V70.301H73.8594V68.7385ZM73.8594 71.2385H79.7656V72.801H73.8594V71.2385ZM73.8594 73.7385H79.7656V75.301H73.8594V73.7385ZM69.3594 61.2385V53.5595L79.7656 47.7782V52.801H73.0156V76.2385H79.7656V82.801H75.5469V77.801H69.0781V82.801H64.8594V61.2385H69.3594ZM72.7344 78.7385H74.7031V82.801H72.7344V78.7385ZM71.8906 82.801H69.9219V78.7385H71.8906V82.801ZM51.3594 56.2385H56.1406V60.301H51.3594V56.2385ZM51.3594 61.2385H56.1406V65.301H51.3594V61.2385ZM51.3594 66.2385H56.1406V70.301H51.3594V66.2385ZM51.3594 71.2385H56.1406V75.301H51.3594V71.2385ZM56.9844 51.2385H58.3906V75.301H56.9844V51.2385ZM64.0156 70.301H59.2344V66.2385H64.0156V70.301ZM64.0156 65.301H59.2344V61.2385H64.0156V65.301ZM59.2344 60.301V56.2385H64.0156V60.301H59.2344ZM59.2344 71.2385H64.0156V75.301H59.2344V71.2385ZM64.0156 55.301H59.2344V51.2385H64.0156V55.301ZM50.2344 48.7385H65.7031V50.301H50.2344V48.7385ZM56.1406 51.2385V55.301H51.3594V51.2385H56.1406ZM51.3594 76.2385H64.0156V82.801H60.9219V78.7385H62.1875V77.801H53.1875V78.7385H54.4531V82.801H51.3594V76.2385ZM57.2656 78.7385V82.801H55.2969V78.7385H57.2656ZM58.1094 78.7385H60.0781V82.801H58.1094V78.7385Z" fill="white"/>
</svg>
