<svg width="130" height="130" viewBox="0 0 130 130" fill="none" xmlns="http://www.w3.org/2000/svg">
<circle cx="65" cy="65" r="64.5" stroke="white"/>
<path d="M82.2333 53.6666V53.7666H82.3333H84.3333C84.5106 53.7666 84.6505 53.8253 84.7459 53.9207C84.8413 54.016 84.8999 54.156 84.8998 54.3332V78.3333V83.6666C84.8998 83.8439 84.8412 83.9838 84.7458 84.0792C84.6504 84.1746 84.5105 84.2332 84.3332 84.2332H73.6666H70.3332H59.6666H56.3333H45.6666C45.4894 84.2332 45.3494 84.1746 45.254 84.0792C45.1586 83.9838 45.1 83.8439 45.1 83.6666V78.3333V54.3333C45.1 54.156 45.1586 54.016 45.254 53.9207C45.3494 53.8253 45.4894 53.7666 45.6666 53.7666H47.6668H47.7668V53.6666V53C47.7668 52.8227 47.8254 52.6828 47.9208 52.5874C48.0162 52.492 48.1561 52.4334 48.3334 52.4334C48.5107 52.4334 48.6506 52.492 48.746 52.5874C48.8414 52.6828 48.9 52.8227 48.9 53V53.6666V53.7666H49H51.6667H51.7667V53.6666V53C51.7667 52.8227 51.8254 52.6828 51.9207 52.5874C52.0161 52.492 52.1561 52.4334 52.3333 52.4334C52.5106 52.4334 52.6506 52.492 52.7459 52.5874C52.8413 52.6828 52.9 52.8227 52.9 53V53.6666V53.7666H53H55.667H55.767V53.6666V47.6666C55.767 47.4894 55.8256 47.3494 55.921 47.254C56.0164 47.1587 56.1563 47.1 56.3336 47.1H62.3336H62.4336V47V46.3334C62.4336 46.1561 62.4922 46.0162 62.5876 45.9208C62.683 45.8254 62.823 45.7667 63.0002 45.7667C63.1775 45.7667 63.3175 45.8254 63.4128 45.9208C63.5082 46.0162 63.5669 46.1561 63.5669 46.3334V47V47.1H63.6669H66.3335H66.4335V47V46.3334C66.4335 46.1561 66.4922 46.0162 66.5876 45.9208C66.6829 45.8254 66.8229 45.7667 67.0002 45.7667C67.1774 45.7667 67.3174 45.8254 67.4128 45.9208C67.5082 46.0162 67.5668 46.1561 67.5668 46.3334V47V47.1H67.6668H73.6668C73.8441 47.1 73.984 47.1587 74.0794 47.254C74.1748 47.3494 74.2334 47.4894 74.2334 47.6666V53.6666V53.7666H74.3334H77.0001H77.1001V53.6666V53C77.1001 52.8227 77.1588 52.6828 77.2541 52.5874C77.3495 52.492 77.4895 52.4334 77.6667 52.4334C77.844 52.4334 77.984 52.492 78.0793 52.5874C78.1747 52.6828 78.2334 52.8227 78.2334 53V53.6666V53.7666H78.3334H81.0001H81.1001V53.6666V53C81.1001 52.8227 81.1587 52.6828 81.2541 52.5874C81.3495 52.492 81.4894 52.4334 81.6667 52.4334C81.844 52.4334 81.9839 52.492 82.0793 52.5874C82.1747 52.6828 82.2333 52.8227 82.2333 53V53.6666ZM83.7667 55V54.9H83.6667H74.3333H74.2333V55V77.6666V77.7666H74.3333H83.6667H83.7667V77.6666V55ZM46.3333 54.9H46.2333V55V77.6666V77.7666H46.3333H55.6667H55.7667V77.6666V55V54.9H55.6667H46.3333ZM46.3333 78.9H46.2333V79V83V83.1H46.3333H55.6667H55.7667V83V79V78.9H55.6667H46.3333ZM56.9 78.3333V78.4333H56.9001V82.9999V83.0999H57.0001H59H59.1V82.9999V76.9999C59.1 76.8226 59.1587 76.6827 59.2541 76.5873C59.3495 76.4919 59.4894 76.4333 59.6667 76.4333H70.3334C70.5107 76.4333 70.6506 76.4919 70.746 76.5873C70.8414 76.6827 70.9 76.8226 70.9 76.9999V82.9999V83.0999H71H73H73.1V82.9999V78.3333V54.3333V48.3333V48.2333H73H57H56.9V48.3333V54.3333V78.3333ZM60.3333 77.5666H60.2333V77.6666V83V83.1H60.3333H64.3333H64.4333V83V77.6666V77.5666H64.3333H60.3333ZM65.5667 82.9999V83.0999H65.6667H69.6667H69.7667V82.9999V77.6665V77.5665H69.6667H65.6667H65.5667V77.6665V82.9999ZM83.6667 83.0999H83.7667V82.9999V78.9999V78.8999H83.6667H74.3333H74.2333V78.9999V82.9999V83.0999H74.3333H83.6667Z" fill="white" stroke="black" stroke-width="0.2"/>
<path d="M60.9998 52.9H60.8998V53V54.3333V54.4333H60.9998H62.3332H62.4332V54.3333V53V52.9H62.3332H60.9998ZM62.3332 55.5666H60.9998C60.3217 55.5666 59.7665 55.0114 59.7665 54.3333V53C59.7665 52.3218 60.3217 51.7666 60.9998 51.7666H62.3332C63.0113 51.7666 63.5665 52.3218 63.5665 53V54.3333C63.5665 55.0114 63.0113 55.5666 62.3332 55.5666Z" fill="white" stroke="black" stroke-width="0.2"/>
<path d="M67.6668 52.9H67.5668V53V54.3333V54.4333H67.6668H69.0002H69.1002V54.3333V53V52.9H69.0002H67.6668ZM69.0002 55.5666H67.6668C66.9887 55.5666 66.4335 55.0114 66.4335 54.3333V53C66.4335 52.3218 66.9887 51.7666 67.6668 51.7666H69.0002C69.6783 51.7666 70.2335 52.3218 70.2335 53V54.3333C70.2335 55.0114 69.6783 55.5666 69.0002 55.5666Z" fill="white" stroke="black" stroke-width="0.2"/>
<path d="M60.9998 58.2333H60.8998V58.3333V59.6667V59.7667H60.9998H62.3332H62.4332V59.6667V58.3333V58.2333H62.3332H60.9998ZM62.3332 60.9H60.9998C60.3217 60.9 59.7665 60.3448 59.7665 59.6667V58.3333C59.7665 57.6552 60.3217 57.1 60.9998 57.1H62.3332C63.0113 57.1 63.5665 57.6552 63.5665 58.3333V59.6667C63.5665 60.3448 63.0113 60.9 62.3332 60.9Z" fill="white" stroke="black" stroke-width="0.2"/>
<path d="M67.6668 58.2333H67.5668V58.3333V59.6667V59.7667H67.6668H69.0002H69.1002V59.6667V58.3333V58.2333H69.0002H67.6668ZM69.0002 60.9H67.6668C66.9887 60.9 66.4335 60.3448 66.4335 59.6667V58.3333C66.4335 57.6552 66.9887 57.1 67.6668 57.1H69.0002C69.6783 57.1 70.2335 57.6552 70.2335 58.3333V59.6667C70.2335 60.3448 69.6783 60.9 69.0002 60.9Z" fill="white" stroke="black" stroke-width="0.2"/>
<path d="M60.9998 63.5666H60.8998V63.6666V64.9999V65.0999H60.9998H62.3332H62.4332V64.9999V63.6666V63.5666H62.3332H60.9998ZM62.3332 66.2333H60.9998C60.3217 66.2333 59.7665 65.6781 59.7665 64.9999V63.6666C59.7665 62.9885 60.3217 62.4333 60.9998 62.4333H62.3332C63.0113 62.4333 63.5665 62.9885 63.5665 63.6666V64.9999C63.5665 65.6781 63.0113 66.2333 62.3332 66.2333Z" fill="white" stroke="black" stroke-width="0.2"/>
<path d="M67.6668 63.5666H67.5668V63.6666V64.9999V65.0999H67.6668H69.0002H69.1002V64.9999V63.6666V63.5666H69.0002H67.6668ZM69.0002 66.2333H67.6668C66.9887 66.2333 66.4335 65.6781 66.4335 64.9999V63.6666C66.4335 62.9885 66.9887 62.4333 67.6668 62.4333H69.0002C69.6783 62.4333 70.2335 62.9885 70.2335 63.6666V64.9999C70.2335 65.6781 69.6783 66.2333 69.0002 66.2333Z" fill="white" stroke="black" stroke-width="0.2"/>
<path d="M60.9998 68.8998H60.8998V68.9998V70.3332V70.4332H60.9998H62.3332H62.4332V70.3332V68.9998V68.8998H62.3332H60.9998ZM62.3332 71.5665H60.9998C60.3217 71.5665 59.7665 71.0113 59.7665 70.3332V68.9998C59.7665 68.3217 60.3217 67.7665 60.9998 67.7665H62.3332C63.0113 67.7665 63.5665 68.3217 63.5665 68.9998V70.3332C63.5665 71.0113 63.0113 71.5665 62.3332 71.5665Z" fill="white" stroke="black" stroke-width="0.2"/>
<path d="M67.6668 68.8998H67.5668V68.9998V70.3332V70.4332H67.6668H69.0002H69.1002V70.3332V68.9998V68.8998H69.0002H67.6668ZM69.0002 71.5665H67.6668C66.9887 71.5665 66.4335 71.0113 66.4335 70.3332V68.9998C66.4335 68.3217 66.9887 67.7665 67.6668 67.7665H69.0002C69.6783 67.7665 70.2335 68.3217 70.2335 68.9998V70.3332C70.2335 71.0113 69.6783 71.5665 69.0002 71.5665Z" fill="white" stroke="black" stroke-width="0.2"/>
<path d="M78.3333 57.5666H78.2333V57.6666V58.9999V59.0999H78.3333H79.6667H79.7667V58.9999V57.6666V57.5666H79.6667H78.3333ZM79.6667 60.2333H78.3333C77.6552 60.2333 77.1 59.6781 77.1 58.9999V57.6666C77.1 56.9885 77.6552 56.4333 78.3333 56.4333H79.6667C80.3448 56.4333 80.9 56.9885 80.9 57.6666V58.9999C80.9 59.6781 80.3448 60.2333 79.6667 60.2333Z" fill="white" stroke="black" stroke-width="0.2"/>
<path d="M78.3333 62.9H78.2333V63V64.3333V64.4333H78.3333H79.6667H79.7667V64.3333V63V62.9H79.6667H78.3333ZM79.6667 65.5667H78.3333C77.6552 65.5667 77.1 65.0114 77.1 64.3333V63C77.1 62.3218 77.6552 61.7666 78.3333 61.7666H79.6667C80.3448 61.7666 80.9 62.3218 80.9 63V64.3333C80.9 65.0114 80.3448 65.5667 79.6667 65.5667Z" fill="white" stroke="black" stroke-width="0.2"/>
<path d="M78.3333 68.2332H78.2333V68.3332V69.6666V69.7666H78.3333H79.6667H79.7667V69.6666V68.3332V68.2332H79.6667H78.3333ZM79.6667 70.8999H78.3333C77.6552 70.8999 77.1 70.3447 77.1 69.6666V68.3332C77.1 67.6551 77.6552 67.0999 78.3333 67.0999H79.6667C80.3448 67.0999 80.9 67.6551 80.9 68.3332V69.6666C80.9 70.3447 80.3448 70.8999 79.6667 70.8999Z" fill="white" stroke="black" stroke-width="0.2"/>
<path d="M78.3333 73.5666H78.2333V73.6666V74.9999V75.0999H78.3333H79.6667H79.7667V74.9999V73.6666V73.5666H79.6667H78.3333ZM79.6667 76.2333H78.3333C77.6552 76.2333 77.1 75.6781 77.1 74.9999V73.6666C77.1 72.9885 77.6552 72.4333 78.3333 72.4333H79.6667C80.3448 72.4333 80.9 72.9885 80.9 73.6666V74.9999C80.9 75.6781 80.3448 76.2333 79.6667 76.2333Z" fill="white" stroke="black" stroke-width="0.2"/>
<path d="M50.2333 58.9999V59.0999H50.3333H51.6666H51.6667H51.7667V58.9999V57.6665V57.5665H51.6667H50.3333H50.2333V57.6665V58.9999ZM50.3333 56.4333H51.6666C52.3447 56.4333 52.8999 56.9885 52.9 57.6666C52.9 57.6666 52.9 57.6666 52.9 57.6666V58.9999C52.9 59.6781 52.3448 60.2333 51.6667 60.2333H50.3333C49.6552 60.2333 49.1 59.6781 49.1 58.9999V57.6666C49.1 56.9885 49.6552 56.4333 50.3333 56.4333Z" fill="white" stroke="black" stroke-width="0.2"/>
<path d="M50.2333 64.3333V64.4333H50.3333H51.6666H51.6667H51.7667V64.3333V63V62.9H51.6667H50.3333H50.2333V63V64.3333ZM50.3333 61.7666H51.6666C52.3447 61.7666 52.8999 62.3218 52.9 63C52.9 63 52.9 63 52.9 63V64.3333C52.9 65.0114 52.3448 65.5667 51.6667 65.5667H50.3333C49.6552 65.5667 49.1 65.0114 49.1 64.3333V63C49.1 62.3218 49.6552 61.7666 50.3333 61.7666Z" fill="white" stroke="black" stroke-width="0.2"/>
<path d="M50.2333 69.6666V69.7666H50.3333H51.6666H51.6667H51.7667V69.6666V68.3333V68.2333H51.6667H50.3333H50.2333V68.3333V69.6666ZM50.3333 67.1H51.6666C52.3447 67.1 52.8999 67.6552 52.9 68.3333C52.9 68.3333 52.9 68.3333 52.9 68.3333V69.6667C52.9 70.3448 52.3448 70.9 51.6667 70.9H50.3333C49.6552 70.9 49.1 70.3448 49.1 69.6667V68.3333C49.1 67.6552 49.6552 67.1 50.3333 67.1Z" fill="white" stroke="black" stroke-width="0.2"/>
<path d="M50.2333 74.9999V75.0999H50.3333H51.6666H51.6667H51.7667V74.9999V73.6666V73.5666H51.6667H50.3333H50.2333V73.6666V74.9999ZM50.3333 72.4333H51.6666C52.3447 72.4333 52.8999 72.9885 52.9 73.6666C52.9 73.6666 52.9 73.6666 52.9 73.6666V74.9999C52.9 75.6781 52.3448 76.2333 51.6667 76.2333H50.3333C49.6552 76.2333 49.1 75.6781 49.1 74.9999V73.6666C49.1 72.9885 49.6552 72.4333 50.3333 72.4333Z" fill="white" stroke="black" stroke-width="0.2"/>
</svg>
