<svg width="130" height="130" viewBox="0 0 130 130" fill="none" xmlns="http://www.w3.org/2000/svg">
<circle cx="65" cy="65" r="64.5" stroke="white"/>
<path d="M55.5668 67.7879V67.8879H55.6668H62.3335H62.4335V67.7879V65.7879V65.6879H62.3335H55.6668H55.5668V65.7879V67.7879ZM62.4335 63.7879V63.6879H62.3335H55.6668H55.5668V63.7879V64.4546V64.5546H55.6668H62.3335H62.4335V64.4546V63.7879ZM63.5668 62.5546V69.0213H54.4335V62.5546H63.5668Z" fill="white" stroke="#1A1A18" stroke-width="0.2"/>
<path d="M58.4335 73.1213V73.0213H58.3335H55.6668H55.5668V73.1213V75.1213V75.2213H55.6668H58.3335H58.4335V75.1213V73.1213ZM55.6668 76.3546H55.5668V76.4546V78.4546V78.5546H55.6668H58.3335H58.4335V78.4546V76.4546V76.3546H58.3335H55.6668ZM59.5668 78.4546V78.5546H59.6668H62.3335H62.4335V78.4546V76.4546V76.3546H62.3335H59.6668H59.5668V76.4546V78.4546ZM62.3335 75.2213H62.4335V75.1213V73.1213V73.0213H62.3335H59.6668H59.5668V73.1213V75.1213V75.2213H59.6668H62.3335ZM54.4335 79.688V71.888H63.5668V79.688H54.4335Z" fill="white" stroke="#1A1A18" stroke-width="0.2"/>
<path d="M67.5668 67.7879V67.8879H67.6668H74.3335H74.4335V67.7879V67.1213V67.0213H74.3335H67.6668H67.5668V67.1213V67.7879ZM74.4335 63.7879V63.6879H74.3335H67.6668H67.5668V63.7879V65.7879V65.8879H67.6668H74.3335H74.4335V65.7879V63.7879ZM75.5668 62.5546V69.0213H66.4335V62.5546H75.5668Z" fill="white" stroke="#1A1A18" stroke-width="0.2"/>
<mask id="path-5-inside-1" fill="white">
<path d="M84.3333 77.1213C83.9647 77.1213 83.6667 77.42 83.6667 77.788V78.4546H83V77.788C83 77.42 82.702 77.1213 82.3333 77.1213C81.9647 77.1213 81.6667 77.42 81.6667 77.788V78.4546H81V64.9853C81.3473 65.1413 81.7153 65.2273 82.084 65.2273C82.7993 65.2273 83.51 64.9366 84.0353 64.3713C84.542 63.826 84.7987 63.088 84.74 62.346C84.6807 61.6046 84.3107 60.916 83.7253 60.4573L66.8147 47.23L65 45.5453L63.2287 47.1933L46.2753 60.4573C45.6893 60.916 45.3193 61.6046 45.2607 62.346C45.202 63.088 45.4587 63.826 45.9653 64.3713C46.7613 65.2286 47.9793 65.4446 49.0007 64.986V78.4553H48.3333V77.7886C48.3333 77.4206 48.0353 77.122 47.6667 77.122C47.298 77.122 47 77.4206 47 77.7886V78.4553H46.3333V77.7886C46.3333 77.4206 46.0353 77.122 45.6667 77.122C45.298 77.122 45 77.4206 45 77.7886V83.7886C45 84.1566 45.298 84.4553 45.6667 84.4553C46.0353 84.4553 46.3333 84.1566 46.3333 83.7886V83.122H47V83.7886C47 84.1566 47.298 84.4553 47.6667 84.4553C48.0353 84.4553 48.3333 84.1566 48.3333 83.7886V83.122H49V84.4553H66.3333H75.6667H81V83.122H81.6667V83.7886C81.6667 84.1566 81.9647 84.4553 82.3333 84.4553C82.702 84.4553 83 84.1566 83 83.7886V83.122H83.6667V83.7886C83.6667 84.1566 83.9647 84.4553 84.3333 84.4553C84.702 84.4553 85 84.1566 85 83.7886V77.7886C85 77.42 84.702 77.1213 84.3333 77.1213ZM46.9413 63.4633C46.6847 63.1866 46.56 62.8273 46.59 62.4513C46.62 62.0753 46.7993 61.74 47.0973 61.5073L64.0933 48.2073L65.0007 47.364L65.95 48.2433L82.9033 61.5073C83.2007 61.74 83.3807 62.0753 83.4107 62.4513C83.4407 62.8273 83.3153 63.1873 83.0593 63.4633C82.5873 63.9713 81.8187 64.0353 81.2687 63.612L81 63.4053L65 51.072L49.26 63.2053L49.2593 63.206L48.732 63.612C48.1813 64.0353 47.4133 63.9713 46.9413 63.4633ZM46.3333 81.788V79.788H47V81.788H46.3333ZM48.3333 81.788V79.788H49V81.788H48.3333ZM67.6667 83.1213V73.1213H74.3333V83.1213H67.6667ZM79.6667 83.1213H75.6667V71.788H66.3333V83.1213H50.3333V64.0606L65 52.7546L79.6667 64.0606V83.1213ZM81 81.788V79.788H81.6667V81.788H81ZM83 81.788V79.788H83.6667V81.788H83Z"/>
</mask>
<path d="M84.3333 77.1213C83.9647 77.1213 83.6667 77.42 83.6667 77.788V78.4546H83V77.788C83 77.42 82.702 77.1213 82.3333 77.1213C81.9647 77.1213 81.6667 77.42 81.6667 77.788V78.4546H81V64.9853C81.3473 65.1413 81.7153 65.2273 82.084 65.2273C82.7993 65.2273 83.51 64.9366 84.0353 64.3713C84.542 63.826 84.7987 63.088 84.74 62.346C84.6807 61.6046 84.3107 60.916 83.7253 60.4573L66.8147 47.23L65 45.5453L63.2287 47.1933L46.2753 60.4573C45.6893 60.916 45.3193 61.6046 45.2607 62.346C45.202 63.088 45.4587 63.826 45.9653 64.3713C46.7613 65.2286 47.9793 65.4446 49.0007 64.986V78.4553H48.3333V77.7886C48.3333 77.4206 48.0353 77.122 47.6667 77.122C47.298 77.122 47 77.4206 47 77.7886V78.4553H46.3333V77.7886C46.3333 77.4206 46.0353 77.122 45.6667 77.122C45.298 77.122 45 77.4206 45 77.7886V83.7886C45 84.1566 45.298 84.4553 45.6667 84.4553C46.0353 84.4553 46.3333 84.1566 46.3333 83.7886V83.122H47V83.7886C47 84.1566 47.298 84.4553 47.6667 84.4553C48.0353 84.4553 48.3333 84.1566 48.3333 83.7886V83.122H49V84.4553H66.3333H75.6667H81V83.122H81.6667V83.7886C81.6667 84.1566 81.9647 84.4553 82.3333 84.4553C82.702 84.4553 83 84.1566 83 83.7886V83.122H83.6667V83.7886C83.6667 84.1566 83.9647 84.4553 84.3333 84.4553C84.702 84.4553 85 84.1566 85 83.7886V77.7886C85 77.42 84.702 77.1213 84.3333 77.1213ZM46.9413 63.4633C46.6847 63.1866 46.56 62.8273 46.59 62.4513C46.62 62.0753 46.7993 61.74 47.0973 61.5073L64.0933 48.2073L65.0007 47.364L65.95 48.2433L82.9033 61.5073C83.2007 61.74 83.3807 62.0753 83.4107 62.4513C83.4407 62.8273 83.3153 63.1873 83.0593 63.4633C82.5873 63.9713 81.8187 64.0353 81.2687 63.612L81 63.4053L65 51.072L49.26 63.2053L49.2593 63.206L48.732 63.612C48.1813 64.0353 47.4133 63.9713 46.9413 63.4633ZM46.3333 81.788V79.788H47V81.788H46.3333ZM48.3333 81.788V79.788H49V81.788H48.3333ZM67.6667 83.1213V73.1213H74.3333V83.1213H67.6667ZM79.6667 83.1213H75.6667V71.788H66.3333V83.1213H50.3333V64.0606L65 52.7546L79.6667 64.0606V83.1213ZM81 81.788V79.788H81.6667V81.788H81ZM83 81.788V79.788H83.6667V81.788H83Z" fill="white" stroke="#1A1A18" stroke-width="0.4" mask="url(#path-5-inside-1)"/>
</svg>
