<svg width="130" height="130" viewBox="0 0 130 130" fill="none" xmlns="http://www.w3.org/2000/svg">
<circle cx="65" cy="65" r="64.5" stroke="white"/>
<path d="M82.395 83.8282V83.9282H82.495H84.4141C84.6824 83.9282 84.9 84.1457 84.9 84.4141C84.9 84.6825 84.6824 84.9 84.4141 84.9H45.5859C45.3176 84.9 45.1 84.6825 45.1 84.4141C45.1 84.1457 45.3176 83.9282 45.5859 83.9282H46.8788H46.9788V83.8282V78.2795V78.2342L46.9448 78.2044C46.5818 77.8853 46.3525 77.4185 46.3525 76.899C46.3525 75.9406 47.1324 75.1606 48.0909 75.1606H52.723H52.8208L52.8229 75.0628L53.2416 56.2216C53.2474 55.9575 53.4633 55.7465 53.7274 55.7465H57.485C57.7492 55.7465 57.965 55.9575 57.9708 56.2216L58.3338 72.5577L58.3359 72.6555H58.4338H60.0658H60.1597L60.1656 72.5617L60.7575 63.0909L60.6577 63.0847L60.7575 63.0909C60.7735 62.8348 60.9859 62.6353 61.2425 62.6353H63.7475C64.0041 62.6353 64.2165 62.8348 64.2325 63.0909L64.8244 72.5617L64.8303 72.6555H64.9242H66.3284H66.4223L66.4282 72.5617L67.0201 63.0909C67.0361 62.8348 67.2485 62.6353 67.5051 62.6353H70.0101C70.2666 62.6353 70.479 62.8348 70.495 63.0909L71.087 72.5617L71.0929 72.6555H71.1868H72.5909H72.6849L72.6907 72.5617L73.2827 63.0909C73.2987 62.8348 73.5111 62.6353 73.7677 62.6353H76.2727C76.5293 62.6353 76.7417 62.8348 76.7577 63.0909L77.3496 72.5617L77.3555 72.6555H77.4495H81.2828C82.2413 72.6555 83.0213 73.4354 83.0213 74.3939C83.0213 74.9134 82.7919 75.3802 82.429 75.6993L82.395 75.7292V75.7744V83.8282ZM52.6671 77.6656H52.7649L52.7671 77.5679L52.7967 76.2347L52.799 76.1324H52.6967H48.0909C47.6682 76.1324 47.3244 76.4762 47.3244 76.899C47.3244 77.3217 47.6681 77.6656 48.0909 77.6656C48.3593 77.6656 48.5769 77.8831 48.5769 78.1515C48.5769 78.4199 48.3593 78.6374 48.0909 78.6374C48.0836 78.6374 48.0779 78.6372 48.0708 78.637C48.0658 78.6368 48.0602 78.6366 48.053 78.6365L47.9506 78.6341V78.7364V83.8282V83.9282H48.0506H52.528H52.6258L52.6279 83.8304L52.7411 78.7397L52.7433 78.6375H52.6411H50.5963C50.3279 78.6375 50.1103 78.4199 50.1103 78.1516C50.1103 77.8832 50.3279 77.6656 50.5963 77.6656H52.6671ZM74.318 63.6072H74.2241L74.2182 63.701L73.6653 72.5492L73.6586 72.6555H73.7651H76.2752H76.3817L76.375 72.5492L75.822 63.701L75.8161 63.6072H75.7222H74.318ZM68.0555 63.6072H67.9615L67.9557 63.701L67.4027 72.5492L67.3961 72.6555H67.5025H70.0127H70.1191L70.1125 72.5492L69.5594 63.701L69.5536 63.6072H69.4596H68.0555ZM61.7929 63.6072H61.6989L61.6931 63.701L61.14 72.5492L61.1334 72.6555H61.2398H63.75H63.8564L63.8498 72.5492L63.2968 63.701L63.291 63.6072H63.197H61.7929ZM55.0202 83.9282H55.1202V83.8282V75.7744V75.7292L55.0863 75.6993C54.7232 75.3802 54.4939 74.9134 54.4939 74.3939C54.4939 73.4355 55.2739 72.6555 56.2324 72.6555H57.2616H57.3638L57.3615 72.5533L57.0118 56.8161L57.0096 56.7183H56.9118H54.3003H54.2025L54.2003 56.8161L53.6003 83.8259L53.598 83.9282H53.7002H55.0202ZM81.4231 76.2313V76.1296L81.3214 76.1314C81.3005 76.1317 81.2972 76.1324 81.2828 76.1324H80.0303C79.7619 76.1324 79.5444 75.9148 79.5444 75.6464C79.5444 75.3781 79.7619 75.1605 80.0303 75.1605H81.2828C81.7055 75.1605 82.0494 74.8167 82.0494 74.3939C82.0494 73.9711 81.7055 73.6274 81.2827 73.6274H56.2323C55.8095 73.6274 55.4657 73.9712 55.4657 74.3939C55.4657 74.8167 55.8095 75.1605 56.2323 75.1605H77.5257C77.7941 75.1605 78.0116 75.3781 78.0116 75.6464C78.0116 75.9148 77.7941 76.1324 77.5257 76.1324H56.2323C56.225 76.1324 56.2193 76.1322 56.2122 76.1319C56.2073 76.1317 56.2017 76.1315 56.1943 76.1314L56.092 76.129V76.2313V83.8282V83.9282H56.192H81.3231H81.4231V83.8282V76.2313Z" fill="white" stroke="#1A1A18" stroke-width="0.2"/>
<path d="M72.7357 46.8725L72.6722 46.8248C71.7236 46.113 70.5742 45.7262 69.384 45.7262C67.9392 45.7262 66.5598 46.2967 65.5344 47.3054L65.4864 47.3525L65.4247 47.3259C64.8959 47.0979 64.324 46.9788 63.7477 46.9788C62.046 46.9788 60.5288 47.9977 59.8629 49.5228L59.8281 49.6026L59.7443 49.5791C59.5179 49.5157 59.2861 49.4837 59.0508 49.4837C57.8846 49.4837 56.881 50.2422 56.5225 51.3054L56.4967 51.3817L56.4167 51.3728C56.3555 51.366 56.294 51.3626 56.2326 51.3626C55.274 51.3626 54.4941 52.1426 54.494 53.101L72.7357 46.8725ZM72.7357 46.8725L72.7965 46.8214M72.7357 46.8725L72.7965 46.8214M72.7965 46.8214C74.1238 45.7077 75.7839 45.1 77.5254 45.1C81.5919 45.1 84.9002 48.4084 84.9002 52.4748C84.9002 56.5411 81.5919 59.8495 77.5254 59.8495C74.9989 59.8495 72.6633 58.5588 71.3126 56.4487L71.2698 56.3819L71.1951 56.4083C70.6112 56.6141 70.0042 56.7182 69.384 56.7182C67.9393 56.7182 66.5598 56.1478 65.5344 55.1391L65.4865 55.0919L65.4247 55.1186C64.8959 55.3465 64.324 55.4656 63.7477 55.4656C62.6378 55.4656 61.5985 55.0412 60.8131 54.2835L60.7505 54.2231L60.682 54.2767C60.2182 54.6395 59.6492 54.8394 59.0508 54.8394C58.7824 54.8394 58.5648 54.6218 58.5648 54.3534C58.5648 54.0851 58.7824 53.8675 59.0508 53.8675C59.5716 53.8675 60.0587 53.6259 60.387 53.2071C60.4792 53.0896 60.6202 53.021 60.7694 53.021H60.7694H60.7695H60.7695H60.7695H60.7695H60.7695H60.7695H60.7695H60.7695H60.7695H60.7696H60.7696H60.7696H60.7696H60.7696H60.7696H60.7696H60.7696H60.7696H60.7697H60.7697H60.7697H60.7697H60.7697H60.7697H60.7697H60.7697H60.7697H60.7698H60.7698H60.7698H60.7698H60.7698H60.7698H60.7698H60.7698H60.7698H60.7699H60.7699H60.7699H60.7699H60.7699H60.7699H60.7699H60.7699H60.7699H60.7699H60.77H60.77H60.77H60.77H60.77H60.77H60.77H60.77H60.77H60.7701H60.7701H60.7701H60.7701H60.7701H60.7701H60.7701H60.7701H60.7701H60.7702H60.7702H60.7702H60.7702H60.7702H60.7702H60.7702H60.7702H60.7702H60.7703H60.7703H60.7703H60.7703H60.7703H60.7703H60.7703H60.7703H60.7703H60.7704H60.7704H60.7704H60.7704H60.7704H60.7704H60.7704H60.7704H60.7704H60.7705H60.7705H60.7705H60.7705H60.7705H60.7705H60.7705H60.7705H60.7705H60.7706H60.7706H60.7706H60.7706H60.7706H60.7706H60.7706H60.7706H60.7706H60.7707H60.7707H60.7707H60.7707H60.7707H60.7707H60.7707H60.7707H60.7707H60.7708H60.7708H60.7708H60.7708H60.7708H60.7708H60.7708H60.7708H60.7708H60.7709H60.7709H60.7709H60.7709H60.7709H60.7709H60.7709H60.7709H60.771H60.771H60.771H60.771H60.771H60.771H60.771H60.771H60.771H60.7711H60.7711H60.7711H60.7711H60.7711H60.7711H60.7711H60.7711H60.7711H60.7712H60.7712H60.7712H60.7712H60.7712H60.7712H60.7712H60.7712H60.7712H60.7713H60.7713H60.7713H60.7713H60.7713H60.7713H60.7713H60.7713H60.7713H60.7714H60.7714H60.7714H60.7714H60.7714H60.7714H60.7714H60.7714H60.7714H60.7715H60.7715H60.7715H60.7715H60.7715H60.7715H60.7715H60.7715H60.7716H60.7716H60.7716H60.7716H60.7716H60.7716H60.7716H60.7716H60.7716H60.7717H60.7717H60.7717H60.7717H60.7717H60.7717H60.7717H60.7717H60.7717H60.7718H60.7718H60.7718H60.7718H60.7718H60.7718H60.7718H60.7718H60.7719H60.7719H60.7719H60.7719H60.7719H60.7719H60.7719H60.7719H60.7719H60.772H60.772H60.772H60.772H60.772H60.772H60.772H60.772H60.7721H60.7721H60.7721H60.7721H60.7721H60.7721H60.7721H60.7721H60.7721C60.9221 53.0219 61.0633 53.092 61.1547 53.2109C61.7808 54.0258 62.7262 54.4938 63.7477 54.4938C64.3088 54.4938 64.8644 54.3471 65.3547 54.0698C65.5563 53.9557 65.8104 53.9998 65.9617 54.175L66.0374 54.1097L65.9617 54.1751C66.824 55.1735 68.0714 55.7463 69.384 55.7463C70.0361 55.7463 70.6716 55.6058 71.2721 55.3292C71.5042 55.2223 71.7795 55.3134 71.902 55.5377C73.0266 57.5978 75.1814 58.8777 77.5254 58.8777C81.0561 58.8777 83.9283 56.0054 83.9283 52.4748C83.9283 48.9441 81.0561 46.0719 77.5254 46.0719C75.864 46.0719 74.2872 46.7098 73.0858 47.8678C72.9016 48.0453 72.6112 48.0496 72.4218 47.8775C71.5852 47.1172 70.5063 46.6982 69.384 46.6982C68.0714 46.6982 66.824 47.2711 65.9616 48.2695L65.9616 48.2695C65.8103 48.4448 65.5561 48.4888 65.3546 48.3748L65.3546 48.3748C64.8644 48.0974 64.3087 47.9507 63.7476 47.9507C62.2674 47.9507 60.9687 48.9512 60.5892 50.3835C60.5506 50.529 60.447 50.6483 60.3084 50.7068C60.1698 50.7653 60.0119 50.7563 59.881 50.6826L59.881 50.6826C59.6153 50.5329 59.3357 50.4558 59.0507 50.4558C58.155 50.4558 57.4117 51.1605 57.3572 52.059L57.3572 52.059M72.7965 46.8214L57.3572 52.059M57.3572 52.059C57.347 52.2284 57.249 52.3802 57.0989 52.4594M57.3572 52.059L57.0989 52.4594M56.6227 52.4465C56.5001 52.3732 56.3685 52.3345 56.2326 52.3345C55.8098 52.3345 55.466 52.6783 55.466 53.1011C55.466 53.3695 55.2484 53.587 54.9801 53.587C54.7117 53.587 54.4941 53.3695 54.494 53.101L56.6227 52.4465ZM56.6227 52.4465C56.7683 52.5337 56.9488 52.5385 57.0989 52.4594M56.6227 52.4465L57.0989 52.4594" fill="white" stroke="#1A1A18" stroke-width="0.2"/>
<path d="M59.5038 78.1515C59.5038 77.8831 59.7214 77.6656 59.9897 77.6656C60.2581 77.6656 60.4757 77.8831 60.4757 78.1515V79.404C60.4757 79.6724 60.2581 79.8899 59.9897 79.8899C59.7214 79.8899 59.5038 79.6724 59.5038 79.404V78.1515Z" fill="white" stroke="#1A1A18" stroke-width="0.2"/>
<path d="M62.0092 78.1515C62.0092 77.8831 62.2268 77.6656 62.4951 77.6656C62.7635 77.6656 62.9811 77.8831 62.9811 78.1515V79.404C62.9811 79.6724 62.7635 79.8899 62.4951 79.8899C62.2268 79.8899 62.0092 79.6724 62.0092 79.404V78.1515Z" fill="white" stroke="#1A1A18" stroke-width="0.2"/>
<path d="M64.5141 78.1515C64.5141 77.8831 64.7316 77.6656 65 77.6656C65.2684 77.6656 65.4859 77.8831 65.4859 78.1515V79.404C65.4859 79.6724 65.2684 79.8899 65 79.8899C64.7316 79.8899 64.5141 79.6724 64.5141 79.404V78.1515Z" fill="white" stroke="#1A1A18" stroke-width="0.2"/>
<path d="M67.0189 78.1515C67.0189 77.8831 67.2365 77.6656 67.5049 77.6656C67.7733 77.6656 67.9908 77.8831 67.9908 78.1515V79.404C67.9908 79.6724 67.7732 79.8899 67.5049 79.8899C67.2365 79.8899 67.0189 79.6724 67.0189 79.404V78.1515Z" fill="white" stroke="#1A1A18" stroke-width="0.2"/>
<path d="M69.5243 78.1515C69.5243 77.8831 69.7419 77.6656 70.0103 77.6656C70.2786 77.6656 70.4962 77.8831 70.4962 78.1515V79.404C70.4962 79.6724 70.2786 79.8899 70.0103 79.8899C69.7419 79.8899 69.5243 79.6724 69.5243 79.404V78.1515Z" fill="white" stroke="#1A1A18" stroke-width="0.2"/>
<path d="M72.0292 78.1515C72.0292 77.8831 72.2468 77.6656 72.5151 77.6656C72.7835 77.6656 73.0011 77.8831 73.0011 78.1515V79.404C73.0011 79.6724 72.7835 79.8899 72.5151 79.8899C72.2468 79.8899 72.0292 79.6724 72.0292 79.404V78.1515Z" fill="white" stroke="#1A1A18" stroke-width="0.2"/>
<path d="M74.5341 78.1515C74.5341 77.8831 74.7517 77.6656 75.02 77.6656C75.2884 77.6656 75.506 77.8831 75.506 78.1515V79.404C75.506 79.6724 75.2884 79.8899 75.02 79.8899C74.7517 79.8899 74.5341 79.6724 74.5341 79.404V78.1515Z" fill="white" stroke="#1A1A18" stroke-width="0.2"/>
<path d="M77.0395 78.1515C77.0395 77.8831 77.257 77.6656 77.5254 77.6656C77.7938 77.6656 78.0113 77.8831 78.0113 78.1515V79.404C78.0113 79.6724 77.7938 79.8899 77.5254 79.8899C77.257 79.8899 77.0395 79.6724 77.0395 79.404V78.1515Z" fill="white" stroke="#1A1A18" stroke-width="0.2"/>
</svg>
