<svg width="130" height="130" viewBox="0 0 130 130" fill="none" xmlns="http://www.w3.org/2000/svg">
<circle cx="65" cy="65" r="64.5" stroke="white"/>
<path d="M65.1707 46.3787L65.1712 46.3789L83.2962 52.6289C83.3994 52.6645 83.489 52.7314 83.5524 52.8203C83.6159 52.9093 83.65 53.0158 83.65 53.125V83.125C83.65 83.2642 83.5947 83.3977 83.4962 83.4962C83.3978 83.5946 83.2642 83.65 83.125 83.65H80.625C80.4858 83.65 80.3522 83.5946 80.2538 83.4962C80.1553 83.3977 80.1 83.2642 80.1 83.125V61.25V61.15H80H50H49.9V61.25V83.125C49.9 83.2642 49.8447 83.3977 49.7462 83.4962C49.6478 83.5946 49.5142 83.65 49.375 83.65H46.875C46.7358 83.65 46.6022 83.5946 46.5038 83.4962C46.4053 83.3977 46.35 83.2642 46.35 83.125L46.35 53.125C46.35 53.125 46.35 53.125 46.35 53.125C46.35 53.0157 46.3842 52.9093 46.4476 52.8203C46.511 52.7314 46.6006 52.6645 46.7038 52.6289L64.8288 46.3789L64.8293 46.3787C64.9398 46.3399 65.0602 46.3399 65.1707 46.3787ZM47.4674 53.476L47.4 53.4993V53.5706V56.25V56.35H47.5H82.5H82.6V56.25V53.5706V53.4993L82.5326 53.476L65.0326 47.4417L65 47.4304L64.9674 47.4417L47.4674 53.476ZM48.75 82.5999H48.85V82.5V57.5V57.4H48.75H47.5H47.4V57.5V82.5V82.5999H47.5H48.75ZM49.9 60V60.1H50H80H80.1V60V57.5V57.4H80H50H49.9V57.5V60ZM82.5 82.5999H82.6V82.5V57.5V57.4H82.5H81.25H81.15V57.5V82.5V82.5999H81.25H82.5Z" fill="white" stroke="#1A1A18" stroke-width="0.2"/>
<path d="M66.3334 54.4955C65.9387 54.7592 65.4747 54.9 65 54.9C64.3635 54.9 63.753 54.6471 63.3029 54.1971C62.8529 53.747 62.6 53.1365 62.6 52.5C62.6 52.0253 62.7408 51.5613 63.0045 51.1666C63.2682 50.772 63.643 50.4643 64.0816 50.2827C64.5201 50.101 65.0027 50.0535 65.4682 50.1461C65.9338 50.2387 66.3614 50.4673 66.6971 50.8029C67.0327 51.1386 67.2613 51.5662 67.3539 52.0318C67.4465 52.4973 67.399 52.9799 67.2173 53.4184C67.0357 53.857 66.728 54.2318 66.3334 54.4955ZM65.75 51.3775C65.528 51.2292 65.267 51.15 65 51.15C64.642 51.15 64.2986 51.2922 64.0454 51.5454C63.7922 51.7986 63.65 52.142 63.65 52.5C63.65 52.767 63.7292 53.028 63.8775 53.25C64.0259 53.472 64.2367 53.6451 64.4834 53.7472C64.7301 53.8494 65.0015 53.8762 65.2634 53.8241C65.5252 53.772 65.7658 53.6434 65.9546 53.4546C66.1434 53.2658 66.272 53.0252 66.3241 52.7634C66.3762 52.5015 66.3494 52.2301 66.2472 51.9834C66.1451 51.7367 65.972 51.5259 65.75 51.3775Z" fill="white" stroke="#1A1A18" stroke-width="0.2"/>
<path d="M65.725 63.65V63.75V67.1137V67.2757L65.5802 67.2032L65.2347 67.0301L65.725 63.65ZM65.725 63.65H65.625M65.725 63.65H65.625M65.625 63.65H64.375H64.275V63.75V67.1137V67.2757M65.625 63.65L64.275 67.2757M64.275 67.2757L64.4198 67.2032M64.275 67.2757L64.4198 67.2032M64.4198 67.2032L64.7653 67.0301L64.4198 67.2032ZM75.525 82.5V82.6H75.625H78.125C78.2642 82.6 78.3978 82.6553 78.4962 82.7538C78.5947 82.8522 78.65 82.9858 78.65 83.125C78.65 83.2642 78.5947 83.3978 78.4962 83.4962C78.3978 83.5947 78.2642 83.65 78.125 83.65H51.875C51.7358 83.65 51.6022 83.5947 51.5038 83.4962C51.4053 83.3978 51.35 83.2642 51.35 83.125C51.35 82.9858 51.4053 82.8522 51.5038 82.7538C51.6022 82.6553 51.7358 82.6 51.875 82.6H54.375H54.475V82.5V73.125C54.475 72.9858 54.5303 72.8522 54.6288 72.7538C54.7272 72.6553 54.8608 72.6 55 72.6H59.375H59.475V72.5V63.125C59.475 62.9858 59.5303 62.8522 59.6288 62.7538C59.7272 62.6553 59.8608 62.6 60 62.6H70C70.1392 62.6 70.2728 62.6553 70.3712 62.7538C70.4697 62.8522 70.525 62.9858 70.525 63.125V72.5V72.6H70.625H75C75.1392 72.6 75.2728 72.6553 75.3712 72.7538C75.4697 72.8522 75.525 72.9858 75.525 73.125V82.5ZM69.375 73.65H69.275V73.75V77.1138V77.2757L69.4198 77.2032L69.7653 77.0301C69.7653 77.0301 69.7654 77.0301 69.7654 77.03C69.8382 76.9937 69.9186 76.9747 70 76.9747C70.0815 76.9747 70.1618 76.9937 70.2347 77.0301L70.5802 77.2032L70.725 77.2757V77.1138V73.75V73.65H70.625H69.375ZM60.625 63.65H60.525V63.75V72.5V72.6H60.625H69.375H69.475V72.5V63.75V63.65H69.375H66.875H66.775V63.75V68.125V68.125C66.775 68.2145 66.7522 68.3026 66.7087 68.3808C66.6651 68.4589 66.6023 68.5247 66.5262 68.5718C66.4501 68.6189 66.3632 68.6457 66.2738 68.6498C66.1844 68.6538 66.0954 68.6349 66.0154 68.5949C66.0154 68.5949 66.0153 68.5949 66.0153 68.5949L65.0447 68.1093L64.9999 68.0869L64.955 68.1094L63.9847 68.598C63.9846 68.5981 63.9846 68.5981 63.9846 68.5981C63.9043 68.6382 63.8152 68.657 63.7256 68.6529C63.636 68.6487 63.5489 68.6216 63.4727 68.5742C63.3965 68.5268 63.3337 68.4607 63.2904 68.3822C63.247 68.3036 63.2245 68.2153 63.225 68.1255V68.125V63.75V63.65H63.125H60.625ZM60.725 73.75V73.65H60.625H60H59.375H59.275V73.75V77.1138V77.2757L59.4198 77.2032L59.7653 77.0301C59.8382 76.9937 59.9185 76.9747 60 76.9747C60.0815 76.9747 60.1618 76.9937 60.2347 77.0301L60.5802 77.2032L60.725 77.2757V77.1138V73.75ZM55.625 73.65H55.525V73.75V82.5V82.6H55.625H64.375H64.475V82.5V73.75V73.65H64.375H61.875H61.775V73.75V78.125V78.125C61.775 78.2145 61.7522 78.3026 61.7087 78.3808C61.6651 78.459 61.6023 78.5247 61.5262 78.5718C61.4501 78.6189 61.3632 78.6457 61.2738 78.6498C61.1844 78.6538 61.0954 78.6349 61.0154 78.5949C61.0154 78.5949 61.0153 78.5949 61.0153 78.5949L60.0447 78.1093L59.9999 78.0869L59.955 78.1094L58.9847 78.598C58.9044 78.6382 58.8152 78.657 58.7256 78.6529C58.636 78.6487 58.5489 78.6216 58.4727 78.5742C58.3965 78.5268 58.3337 78.4607 58.2904 78.3822C58.247 78.3036 58.2245 78.2153 58.225 78.1255V78.125V73.75V73.65H58.125H55.625ZM61.875 78.125V73.85V73.75H61.975H64.275H64.375V73.85V82.4V82.5H64.275H55.725H55.625V82.4V73.85V73.75H55.725H58.025H58.125V73.85V78.125H61.875ZM65.625 73.65H65.525V73.75V82.5V82.6H65.625H74.375H74.475V82.5V73.75V73.65H74.375H71.875H71.775V73.75V78.125V78.125C71.775 78.2145 71.7522 78.3026 71.7087 78.3808C71.6651 78.4589 71.6023 78.5247 71.5262 78.5718C71.4501 78.6189 71.3632 78.6457 71.2738 78.6498C71.1844 78.6538 71.0954 78.6349 71.0154 78.5949C71.0154 78.5949 71.0153 78.5949 71.0153 78.5949L70.0447 78.1093L69.9999 78.0869L69.955 78.1094L68.9847 78.598C68.9044 78.6382 68.8152 78.657 68.7256 78.6529C68.636 78.6487 68.5489 78.6216 68.4727 78.5742C68.3965 78.5268 68.3338 78.4607 68.2904 78.3822C68.247 78.3036 68.2245 78.2153 68.225 78.1255V78.125V73.75V73.65H68.125H65.625ZM68.125 73.85V78.125L71.2783 78.7497C71.3847 78.7448 71.4882 78.7129 71.5788 78.6568C71.6694 78.6008 71.7442 78.5225 71.796 78.4294C71.8479 78.3363 71.875 78.2315 71.875 78.125V73.85V73.75H71.975H74.275H74.375V73.85V82.4V82.5H74.275H65.725H65.625V82.4V73.85V73.75H65.725H68.025H68.125V73.85ZM65 66.9747C65.0814 66.9747 65.1617 66.9936 65.2346 67.03H64.7654C64.8383 66.9936 64.9186 66.9747 65 66.9747Z" fill="white" stroke="#1A1A18" stroke-width="0.2"/>
</svg>
