<svg width="60" height="60" viewBox="0 0 60 60" fill="none" xmlns="http://www.w3.org/2000/svg">
<path d="M26.22 5.8772C28.1847 5.8772 30.1485 5.8772 32.1132 5.8772C35.5396 6.0038 38.733 6.90338 41.7275 8.6178C47.5885 11.9724 51.463 16.9319 53.5954 23.2984C54.1079 24.8291 53.8843 26.5026 54.2121 28.0838C54.2121 30.0581 54.2121 32.0314 54.2121 34.0057C54.0852 37.4488 53.19 40.6578 51.4848 43.6678C48.1474 49.5583 43.2233 53.465 36.8754 55.5926C35.3502 56.1038 33.6924 55.9286 32.1123 56.2123C30.1475 56.2123 28.1838 56.2123 26.219 56.2123C22.7926 56.0847 19.6021 55.1813 16.6048 53.4726C10.7324 50.1256 6.8863 45.1433 4.73874 38.7901C4.22151 37.2613 4.40245 35.5916 4.12109 34.0048C4.12109 32.0305 4.12109 30.0571 4.12109 28.0828C4.24803 24.6397 5.14703 21.4336 6.84746 18.4217C10.1782 12.5207 15.1355 8.65587 21.4578 6.49785C22.9792 5.9781 24.6408 6.15992 26.22 5.8772Z" fill="#F8ED88"/>
<path d="M20.3174 28.7986C22.1069 25.7829 23.5382 23.0328 25.2898 20.5054C27.4213 17.4298 31.9835 17.9981 33.9322 21.5145C35.9064 25.0766 37.7565 28.7092 39.6596 32.3122C40.2782 33.484 40.8873 34.6606 41.5059 35.8315C42.9051 38.4807 42.0487 41.5611 39.5166 42.9728C37.0763 44.3331 33.9606 43.4602 32.5415 40.8862C30.7407 37.6201 29.0563 34.2903 27.3161 30.99C25.6631 27.8515 23.9712 27.2375 20.3174 28.7986Z" fill="#1A1D21"/>
<path d="M21.6037 43.5145C18.451 43.4479 16.0742 40.8729 16.1594 37.6192C16.2419 34.5131 18.7551 32.1428 21.922 32.1856C25.0907 32.2285 27.4912 34.7663 27.4353 38.0143C27.3823 41.1937 24.8473 43.584 21.6037 43.5145Z" fill="#1A1D21"/>
</svg>
