<svg width="60" height="60" viewBox="0 0 60 60" fill="none" xmlns="http://www.w3.org/2000/svg">
<path d="M49.2084 46.4935C49.2121 47.2116 49.0756 47.9234 48.8065 48.5883C48.5375 49.2532 48.1412 49.8581 47.6403 50.3686C47.1394 50.879 46.5437 51.285 45.8872 51.5632C45.2307 51.8415 44.5262 51.9867 43.8141 51.9905C43.591 51.9923 43.368 51.9796 43.1466 51.9524C41.804 51.7522 40.5803 51.0638 39.7062 50.017C38.832 48.9701 38.3676 47.637 38.4006 46.2688V13.7214C38.3684 12.352 38.8341 11.0181 39.71 9.97115C40.5859 8.92418 41.8114 8.23653 43.1554 8.03785C43.9179 7.94685 44.6909 8.02038 45.4231 8.25355C46.1552 8.48671 46.8299 8.8742 47.4022 9.3903C47.9746 9.90641 48.4316 10.5393 48.7429 11.2471C49.0542 11.9548 49.2127 12.7213 49.2079 13.4955L49.2084 46.4935Z" fill="#F9AB00"/>
<path d="M15.1967 41.0998C16.2657 41.0998 17.3107 41.4194 18.1995 42.0183C19.0883 42.6171 19.781 43.4683 20.1901 44.4641C20.5992 45.46 20.7062 46.5558 20.4977 47.613C20.2891 48.6702 19.7744 49.6413 19.0185 50.4035C18.2626 51.1657 17.2996 51.6848 16.2512 51.8951C15.2027 52.1054 14.116 51.9975 13.1284 51.585C12.1408 51.1725 11.2967 50.4739 10.7029 49.5777C10.109 48.6814 9.79199 47.6277 9.79199 46.5498C9.79199 45.1044 10.3614 43.7181 11.375 42.696C12.3886 41.674 13.7633 41.0998 15.1967 41.0998ZM29.4169 24.5813C27.9743 24.661 26.619 25.3037 25.6381 26.3733C24.6571 27.4428 24.1274 28.8554 24.161 30.3118V44.9501C24.161 48.9232 25.8951 51.3343 28.4351 51.8462C29.1319 51.9888 29.8497 51.9916 30.5476 51.8543C31.2454 51.717 31.9096 51.4424 32.5022 51.0463C33.0948 50.6501 33.6041 50.14 34.0012 49.5453C34.3982 48.9505 34.6752 48.2827 34.8162 47.58C34.8898 47.2181 34.9259 46.8494 34.924 46.48V30.0605C34.9254 29.3424 34.7865 28.6309 34.5153 27.9669C34.244 27.3028 33.8457 26.6992 33.3431 26.1904C32.8405 25.6816 32.2434 25.2776 31.5859 25.0015C30.9284 24.7254 30.2235 24.5826 29.5113 24.5813C29.4794 24.5813 29.4471 24.5813 29.4169 24.5813Z" fill="#E37400"/>
</svg>
