<svg width="60" height="60" viewBox="0 0 60 60" fill="none" xmlns="http://www.w3.org/2000/svg">
<path d="M30.2999 15.28C34.8065 15.28 37.8465 17.2267 39.5799 18.8533L46.3532 12.24C42.1932 8.37333 36.7799 6 30.2999 6C20.9132 6 12.8065 11.3867 8.85986 19.2267L16.6199 25.2533C18.5665 19.4667 23.9532 15.28 30.2999 15.28V15.28Z" fill="#EA4335"/>
<path d="M53.3396 30.5332C53.3396 28.5599 53.1796 27.1199 52.8329 25.6266H30.2996V34.5332H43.5262C43.2596 36.7466 41.8196 40.0799 38.6196 42.3199L46.1929 48.1866C50.7262 43.9999 53.3396 37.8399 53.3396 30.5332V30.5332Z" fill="#4285F4"/>
<path d="M16.6465 34.7468C16.1398 33.2535 15.8465 31.6535 15.8465 30.0001C15.8465 28.3468 16.1398 26.7468 16.6198 25.2535L8.8598 19.2268C7.23314 22.4801 6.2998 26.1335 6.2998 30.0001C6.2998 33.8668 7.23314 37.5201 8.8598 40.7735L16.6465 34.7468V34.7468Z" fill="#FBBC05"/>
<path d="M30.3003 54C36.7803 54 42.2203 51.8667 46.1936 48.1867L38.6203 42.32C36.5936 43.7334 33.8736 44.72 30.3003 44.72C23.9536 44.72 18.567 40.5334 16.647 34.7467L8.88696 40.7734C12.8336 48.6134 20.9136 54 30.3003 54V54Z" fill="#34A853"/>
</svg>
