<svg width="60" height="60" viewBox="0 0 60 60" fill="none" xmlns="http://www.w3.org/2000/svg">
<path d="M23.8532 12.5219C25.7392 9.125 30.0173 7.90313 33.4142 9.79063C36.8079 11.6766 38.0314 15.9563 36.1454 19.3516L20.5204 47.4766C19.236 49.7891 16.8392 51.0938 14.3673 51.0938C13.211 51.0938 12.0407 50.8078 10.9579 50.2078C7.56416 48.3219 6.34073 44.0422 8.22666 40.6469L20.0704 19.3375L23.8532 12.5219Z" fill="#FBBC04"/>
<path d="M14.375 51.0938C18.2583 51.0938 21.4062 47.9458 21.4062 44.0625C21.4062 40.1792 18.2583 37.0312 14.375 37.0312C10.4917 37.0312 7.34375 40.1792 7.34375 44.0625C7.34375 47.9458 10.4917 51.0938 14.375 51.0938Z" fill="#34A853"/>
<path d="M45.6312 51.0953C46.7874 51.0953 47.9577 50.8094 49.0405 50.2094C52.4343 48.3235 53.6577 44.0438 51.7718 40.6485L36.1468 12.5235C34.2608 9.12659 29.9827 7.90472 26.5858 9.79222C23.1921 11.6782 21.9687 15.9578 23.8546 19.3532L39.4796 47.4782C40.764 49.7907 43.1608 51.0953 45.6312 51.0953Z" fill="#4285F4"/>
</svg>
