<svg width="60" height="60" viewBox="0 0 60 60" fill="none" xmlns="http://www.w3.org/2000/svg">
<path d="M3.49705 28.7202L28.2653 12.1695C29.3445 11.5434 30.6664 11.5434 31.7455 12.1695L56.5136 28.7202C57.485 29.2104 57.9168 30.3808 57.4311 31.388C57.2421 31.7964 56.9185 32.1231 56.5136 32.3136L53.195 34.5186C45.074 21.5883 28.1302 17.75 15.3145 25.9167C11.888 28.1213 8.9741 31.0345 6.7887 34.5186L3.44309 32.3136C2.47181 31.7964 2.09408 30.5987 2.57972 29.6188C2.79559 29.2378 3.11932 28.9112 3.49705 28.7202ZM29.9648 28.5297C22.869 28.5571 16.2588 32.2322 12.4816 38.3025L18.1744 42.1137C22.0866 35.5533 30.5317 33.457 37.0068 37.4043C38.9226 38.5747 40.5143 40.1809 41.6746 42.1137L47.3673 38.3025C43.6439 32.2048 37.0606 28.5028 29.9648 28.5297ZM29.9648 42.3586C27.4556 42.386 25.1623 43.7468 23.9211 45.9519L27.7527 48.4836C28.3731 49.0281 29.1555 49.3 29.9648 49.3C30.7746 49.3 31.5839 49.0007 32.1773 48.4836L36.0085 45.9519C34.7943 43.7199 32.474 42.3586 29.9648 42.3586Z" fill="url(#paint0_linear_6209_200273)"/>
<defs>
<linearGradient id="paint0_linear_6209_200273" x1="29.9875" y1="49.2904" x2="29.9875" y2="11.7045" gradientUnits="userSpaceOnUse">
<stop stop-color="#EFC119"/>
<stop offset="0.3314" stop-color="#92C84E"/>
<stop offset="0.4859" stop-color="#71BF5B"/>
<stop offset="0.7506" stop-color="#15B158"/>
<stop offset="0.903" stop-color="#23AC69"/>
<stop offset="1" stop-color="#23AC69"/>
</linearGradient>
</defs>
</svg>
