<svg width="60" height="60" viewBox="0 0 60 60" fill="none" xmlns="http://www.w3.org/2000/svg">
<path fill-rule="evenodd" clip-rule="evenodd" d="M25.3288 24.6876V22.7374C24.6519 22.6415 23.9694 22.5917 23.2857 22.5885C14.9261 22.5885 8.125 29.3908 8.125 37.7505C8.125 42.8785 10.6879 47.4179 14.5974 50.1629C11.9797 47.3633 10.5243 43.6731 10.5264 39.8404C10.5264 31.5998 17.134 24.88 25.3288 24.6876" fill="#00F2EA"/>
<path fill-rule="evenodd" clip-rule="evenodd" d="M25.6861 46.764C29.4159 46.764 32.4586 43.7969 32.5972 40.0992L32.6098 7.08992H38.6402C38.5114 6.40071 38.4463 5.70113 38.4455 5H30.2096L30.1958 38.0104C30.0584 41.707 27.0146 44.6729 23.2859 44.6729C22.1664 44.6733 21.0638 44.4006 20.0737 43.8782C20.713 44.7701 21.5555 45.4971 22.5314 45.9989C23.5074 46.5007 24.5887 46.7629 25.6861 46.764V46.764ZM49.9052 18.2942V16.4596C47.6889 16.4617 45.5203 15.817 43.6652 14.6045C45.2916 16.4772 47.4815 17.7718 49.9063 18.2942" fill="#00F2EA"/>
<path fill-rule="evenodd" clip-rule="evenodd" d="M43.6645 14.6032C41.8465 12.523 40.8451 9.85367 40.8463 7.09094H38.6396C38.9253 8.61796 39.5179 10.0711 40.3817 11.3624C41.2454 12.6536 42.3622 13.7562 43.6645 14.6032V14.6032ZM23.2852 30.8255C21.4496 30.8277 19.6898 31.5578 18.3918 32.8558C17.0939 34.1537 16.3638 35.9135 16.3616 37.7492C16.3628 39.0119 16.7091 40.2503 17.363 41.3305C18.017 42.4106 18.9537 43.2915 20.0719 43.8781C19.2204 42.7039 18.762 41.2906 18.7619 39.8403C18.7637 38.0045 19.4937 36.2444 20.7917 34.9461C22.0897 33.6479 23.8497 32.9176 25.6855 32.9155C26.399 32.9155 27.0826 33.0334 27.7284 33.2361V24.8272C27.0517 24.7313 26.3691 24.6815 25.6855 24.6783C25.5652 24.6783 25.4473 24.6852 25.3282 24.6875V31.1462C24.6675 30.9359 23.9786 30.8278 23.2852 30.8255" fill="#FF004F"/>
<path fill-rule="evenodd" clip-rule="evenodd" d="M49.9055 18.2941V24.6956C45.6341 24.6956 41.6775 23.3294 38.4458 21.0105V37.7493C38.4458 46.1089 31.646 52.9101 23.2863 52.9101C20.0557 52.9101 17.06 51.8909 14.5979 50.1617C16.0135 51.6882 17.729 52.9059 19.6371 53.7385C21.5452 54.571 23.6047 55.0005 25.6865 55C34.0462 55 40.8473 48.1989 40.8473 39.8404V23.1015C44.1857 25.5021 48.1949 26.7914 52.3069 26.7866V18.5484C51.4824 18.5484 50.6807 18.459 49.9055 18.293" fill="#FF004F"/>
<path fill-rule="evenodd" clip-rule="evenodd" d="M38.4456 37.7492V21.0104C41.7839 23.4112 45.7932 24.7005 49.9053 24.6955V18.294C47.4808 17.7711 45.2912 16.4761 43.6653 14.6032C42.363 13.7562 41.2461 12.6536 40.3824 11.3624C39.5187 10.0711 38.926 8.61796 38.6403 7.09094H32.6099L32.5973 40.1002C32.4587 43.7968 29.416 46.7639 25.6862 46.7639C24.5888 46.7628 23.5075 46.5004 22.5315 45.9986C21.5557 45.4969 20.7132 44.77 20.0738 43.8781C18.9554 43.2918 18.0184 42.4109 17.3643 41.3307C16.7101 40.2505 16.3636 39.0121 16.3624 37.7492C16.3645 35.9135 17.0946 34.1537 18.3926 32.8558C19.6905 31.5578 21.4504 30.8277 23.286 30.8255C23.9983 30.8255 24.682 30.9424 25.3289 31.1462V24.6875C17.1342 24.8799 10.5266 31.5997 10.5266 39.8403C10.5266 43.8254 12.0749 47.4533 14.5977 50.1627C17.1409 51.9531 20.1758 52.9127 23.286 52.91C31.6457 52.91 38.4456 46.1088 38.4456 37.7492" fill="white"/>
</svg>
