<svg width="170" height="170" viewBox="0 0 170 170" fill="none" xmlns="http://www.w3.org/2000/svg">
<circle cx="85" cy="85" r="84.5" stroke="#1A1A18"/>
<path d="M103.713 57.8595H58.6927C56.6566 57.8595 55 59.5161 55 61.5522V99.0688C55 101.105 56.6566 102.761 58.6927 102.761H88.1784C88.6638 102.761 89.0574 102.368 89.0574 101.883C89.0574 101.397 88.6638 101.004 88.1784 101.004H84.8953V95.3172C84.8953 93.8216 84.0034 92.4837 82.6229 91.9086L78.0054 89.9846C77.6328 89.8294 77.392 89.4682 77.392 89.0645V87.6922C78.5752 86.4888 79.2678 84.8502 79.2678 83.1243V79.3727C79.2678 76.3022 76.349 73.8041 72.7614 73.8041C69.1738 73.8041 66.255 76.3021 66.255 79.3727V83.1243C66.255 84.8499 66.9476 86.4887 68.1308 87.6922V89.0645C68.1308 89.4682 67.89 89.8294 67.5173 89.9848L62.9 91.9086C61.5195 92.4838 60.6275 93.8217 60.6275 95.3173V101.004H58.6927C57.6258 101.004 56.7578 100.136 56.7578 99.069V68.9965H105.647V83.5932C105.647 84.0786 106.041 84.4721 106.526 84.4721C107.012 84.4721 107.405 84.0786 107.405 83.5932V61.5522C107.405 59.5161 105.749 57.8595 103.713 57.8595ZM62.3853 95.3172C62.3853 94.5335 62.8527 93.8325 63.5761 93.5311L68.1935 91.6072C69.2232 91.1782 69.8886 90.1801 69.8886 89.0645V88.8741C70.2113 88.8947 70.5332 88.7369 70.7063 88.4382C70.9494 88.0181 70.8061 87.4805 70.3861 87.2372C68.9223 86.3897 68.0129 84.8137 68.0129 83.1245V79.3728C68.0129 77.2716 70.1432 75.5621 72.7615 75.5621C75.3798 75.5621 77.5101 77.2715 77.5101 79.3728V83.1245C77.5101 84.8144 76.6001 86.3907 75.1354 87.2382C74.7153 87.4813 74.5717 88.0189 74.8148 88.4392C74.9777 88.7208 75.2729 88.8782 75.5764 88.8782C75.5957 88.8782 75.615 88.8757 75.6344 88.8744V89.0647C75.6344 90.1804 76.2998 91.1784 77.3296 91.6075L81.9471 93.5315C82.6704 93.8328 83.1377 94.5339 83.1377 95.3174V101.004H62.3853V95.3172ZM105.647 67.2387H56.7578V61.5522C56.7578 60.4853 57.6258 59.6173 58.6927 59.6173H103.713C104.78 59.6173 105.647 60.4853 105.647 61.5522V67.2387Z" fill="black"/>
<path d="M59.6399 62.5491H59.6306C59.1452 62.5491 58.7563 62.9426 58.7563 63.428C58.7563 63.9134 59.1546 64.3069 59.6399 64.3069C60.1253 64.3069 60.5189 63.9134 60.5189 63.428C60.5189 62.9426 60.1253 62.5491 59.6399 62.5491Z" fill="black"/>
<path d="M65.2581 62.5491H65.2487C64.7633 62.5491 64.3745 62.9426 64.3745 63.428C64.3745 63.9134 64.7727 64.3069 65.2581 64.3069C65.7435 64.3069 66.137 63.9134 66.137 63.428C66.137 62.9426 65.7435 62.5491 65.2581 62.5491Z" fill="black"/>
<path d="M62.4441 62.5491H62.4348C61.9494 62.5491 61.5605 62.9426 61.5605 63.428C61.5605 63.9134 61.9588 64.3069 62.4441 64.3069C62.9295 64.3069 63.3231 63.9134 63.3231 63.428C63.3231 62.9426 62.9295 62.5491 62.4441 62.5491Z" fill="black"/>
<path d="M102.775 62.5491H69.0098C68.5244 62.5491 68.1309 62.9426 68.1309 63.428C68.1309 63.9134 68.5244 64.3069 69.0098 64.3069H102.775C103.26 64.3069 103.654 63.9134 103.654 63.428C103.654 62.9426 103.26 62.5491 102.775 62.5491Z" fill="black"/>
<path d="M114.41 89.5119L101.748 85.1078C101.561 85.0426 101.358 85.0426 101.171 85.1078L92.0654 88.2748C91.6069 88.4343 91.3646 88.9352 91.524 89.3937C91.6834 89.8521 92.1844 90.0944 92.6427 89.9351L101.459 86.8685L113.2 90.9523C113.098 92.0746 112.754 94.5891 111.612 97.6001C110.22 101.271 107.334 106.396 101.459 110.22C95.6097 106.413 92.7258 101.315 91.3313 97.6644C89.7698 93.577 89.6769 90.3545 89.6761 90.3224C89.6652 89.8376 89.2695 89.4544 88.7788 89.4633C88.2935 89.4736 87.9085 89.8753 87.9187 90.3606C87.9217 90.5017 88.0108 93.8652 89.663 98.2232C91.1869 102.243 94.3899 107.897 100.995 112.008C101.137 112.096 101.298 112.141 101.459 112.141C101.62 112.141 101.781 112.096 101.924 112.008C108.528 107.897 111.731 102.243 113.255 98.2232C114.908 93.8652 114.997 90.5017 115 90.3606C115.008 89.9797 114.77 89.637 114.41 89.5119Z" fill="black"/>
<path d="M107.173 94.4689C106.83 94.1257 106.274 94.1257 105.93 94.4689L100.496 99.9032L97.264 96.671C96.9208 96.3278 96.3642 96.3278 96.0211 96.671C95.6779 97.0142 95.6779 97.5708 96.0211 97.9139L99.8747 101.768C100.046 101.939 100.271 102.025 100.496 102.025C100.721 102.025 100.946 101.939 101.118 101.768L107.173 95.7118C107.517 95.3686 107.517 94.812 107.173 94.4689Z" fill="black"/>
<path d="M99.9612 72.866H84.9545C83.9526 72.866 83.1377 73.681 83.1377 74.6827V77.4965C83.1377 78.4984 83.9527 79.3133 84.9545 79.3133H99.9611C100.963 79.3134 101.778 78.4984 101.778 77.4965V74.6827C101.778 73.6809 100.963 72.866 99.9612 72.866ZM100.02 77.4965C100.02 77.5291 99.9936 77.5555 99.9611 77.5555H84.9545C84.922 77.5556 84.8955 77.5291 84.8955 77.4965V74.6827C84.8955 74.6502 84.922 74.6238 84.9545 74.6238H99.9611C99.9937 74.6238 100.02 74.6503 100.02 74.6827V77.4965Z" fill="black"/>
<path d="M96.2091 81.3074H84.9541C84.4687 81.3074 84.0752 81.7009 84.0752 82.1863C84.0752 82.6717 84.4687 83.0652 84.9541 83.0652H96.2091C96.6945 83.0652 97.088 82.6717 97.088 82.1863C97.088 81.7009 96.6945 81.3074 96.2091 81.3074Z" fill="black"/>
<path d="M91.5196 85.0591H84.9541C84.4687 85.0591 84.0752 85.4526 84.0752 85.938C84.0752 86.4234 84.4687 86.8169 84.9541 86.8169H91.5196C92.005 86.8169 92.3985 86.4234 92.3985 85.938C92.3985 85.4526 92.005 85.0591 91.5196 85.0591Z" fill="black"/>
</svg>
