<svg width="170" height="170" viewBox="0 0 170 170" fill="none" xmlns="http://www.w3.org/2000/svg">
<circle cx="85" cy="85" r="84.5" stroke="#1A1A18"/>
<path d="M96.3645 80.9331H94.1016V77.1006C94.1016 72.0819 90.0186 67.999 85 67.999C79.9814 67.999 75.8984 72.082 75.8984 77.1006V80.9331H73.6355C73.092 80.9331 72.6514 81.3737 72.6514 81.9172V92.3008C72.6514 94.399 74.3582 96.1059 76.4564 96.1059H93.5436C95.6418 96.1059 97.3487 94.399 97.3487 92.3008V81.9172C97.3485 81.3737 96.9079 80.9331 96.3645 80.9331ZM77.8664 77.1006C77.8664 73.1672 81.0665 69.9672 84.9999 69.9672C88.9333 69.9672 92.1334 73.1672 92.1334 77.1006V80.9331H90.5327V77.6487C90.5327 74.598 88.0506 72.1159 84.9998 72.1159C81.9489 72.1159 79.4668 74.598 79.4668 77.6487V80.9331H77.8664V77.1006ZM81.4351 80.9331V77.6487C81.4351 75.6832 83.0342 74.0841 84.9999 74.0841C86.9655 74.0841 88.5647 75.6832 88.5647 77.6487V80.9331H81.4351ZM95.3804 92.3007C95.3804 93.3137 94.5563 94.1376 93.5435 94.1376H76.4563C75.4433 94.1376 74.6194 93.3135 74.6194 92.3007V82.9012H95.3805V92.3007H95.3804Z" fill="#1A1A18"/>
<path d="M84.9998 85.9117C84.4562 85.9117 84.0156 86.3523 84.0156 86.8958V90.1429C84.0156 90.6864 84.4562 91.1269 84.9998 91.1269C85.5433 91.1269 85.9839 90.6862 85.9839 90.1429V86.8958C85.9839 86.3523 85.5433 85.9117 84.9998 85.9117Z" fill="#1A1A18"/>
<path d="M97.376 55H72.6237C68.4871 55 65.1216 58.3655 65.1216 62.5021V107.498C65.1216 111.635 68.4869 115 72.6237 115H97.3759C101.512 115 104.878 111.635 104.878 107.498V62.5021C104.878 58.3655 101.513 55 97.376 55ZM67.0898 63.0225H102.91V103.585H67.0898V63.0225ZM72.6237 56.9681H97.3759C99.9264 56.9681 102.078 58.703 102.716 61.0544H67.2833C67.9214 58.703 70.0733 56.9681 72.6237 56.9681ZM97.376 113.032H72.6237C69.5723 113.032 67.0897 110.549 67.0897 107.498V105.553H102.91V107.498C102.91 110.549 100.427 113.032 97.376 113.032Z" fill="#1A1A18"/>
<path d="M87.6988 107.634H82.3005C81.757 107.634 81.3164 108.074 81.3164 108.618C81.3164 109.161 81.757 109.602 82.3005 109.602H87.6988C88.2423 109.602 88.683 109.161 88.683 108.618C88.683 108.074 88.2423 107.634 87.6988 107.634Z" fill="#1A1A18"/>
</svg>
