<svg width="170" height="170" viewBox="0 0 170 170" fill="none" xmlns="http://www.w3.org/2000/svg">
<circle cx="85" cy="85" r="84.5" stroke="#1A1A18"/>
<g clip-path="url(#clip0)">
<path d="M79.2499 55C75.9393 55 73.2461 57.6932 73.2461 61.0038C73.2461 64.3143 75.9394 67.0075 79.2499 67.0075C82.5604 67.0075 85.2536 64.3143 85.2536 61.0038C85.2536 57.6932 82.5604 55 79.2499 55ZM79.2499 65.2496C76.9087 65.2496 75.004 63.345 75.004 61.0038C75.004 58.6626 76.9088 56.7579 79.2499 56.7579C81.591 56.7579 83.4957 58.6627 83.4957 61.0038C83.4957 63.3448 81.591 65.2496 79.2499 65.2496Z" fill="#1A1A18"/>
<path d="M101.758 91.5947C101.411 91.2551 100.855 91.2603 100.515 91.6069L93.1373 99.131L90.532 96.4051C90.1966 96.054 89.6402 96.0414 89.2892 96.3769C88.9384 96.7123 88.9257 97.2686 89.2611 97.6197L92.4938 101.002C92.8367 101.361 93.4091 101.365 93.7569 101.01L101.77 92.8379C102.11 92.491 102.104 91.9346 101.758 91.5947Z" fill="#1A1A18"/>
<path d="M106.608 97.4655C106.132 97.3712 105.669 97.6801 105.574 98.1563C104.566 103.227 100.988 107.56 96.2354 109.464C95.7848 109.645 95.5659 110.156 95.7464 110.607C95.9268 111.058 96.4386 111.277 96.8892 111.096C102.361 108.904 106.197 104.041 107.298 98.499C107.393 98.0227 107.084 97.5601 106.608 97.4655Z" fill="#1A1A18"/>
<path d="M105.099 83.9212C102.748 85.2496 100.53 85.2939 98.5067 84.053C96.8984 83.0666 95.9971 81.6218 95.9611 81.5634C95.665 81.0786 95.1592 80.7807 94.5959 80.7535C92.9606 76.1751 90.2314 72.9949 88.1755 71.1015C86.8643 69.894 85.1624 69.229 83.3831 69.229C82.5286 69.229 75.9489 69.229 75.117 69.229C73.2174 69.229 71.4093 69.9428 70.0259 71.2388C67.1775 73.9074 62.3947 79.7373 62.3667 88.7971C62.3607 90.6967 63.8689 92.2838 65.7286 92.335C67.6712 92.3918 69.2851 90.8329 69.2851 88.8771C69.2851 85.477 70.2401 82.2763 72.0675 79.4924V111.951C72.0675 113.632 73.4356 115 75.1171 115H77.0797C77.9281 115 78.6969 114.652 79.2502 114.091C79.8036 114.652 80.5722 115 81.4208 115H83.3833C85.0649 115 86.4329 113.632 86.4329 111.951V107.317C88.0589 108.95 89.9948 110.239 92.134 111.096C92.5849 111.277 93.0964 111.057 93.2768 110.607C93.4574 110.156 93.2384 109.645 92.7878 109.464C87.1288 107.197 83.148 101.576 83.148 95.0822V85.5014C86.7065 87.4723 90.152 86.9916 92.9667 84.3649C93.6124 83.7717 94.1386 83.1439 94.4943 82.5861C94.4998 82.5777 94.507 82.567 94.5118 82.5595C94.7643 82.9494 95.8188 84.4664 97.5881 85.5516C99.3673 86.6431 102.244 87.5134 105.876 85.5013V94.2261C105.876 94.7116 106.269 95.105 106.755 95.105C107.24 95.105 107.634 94.7116 107.634 94.2261V85.4004C107.633 84.1012 106.232 83.2815 105.099 83.9212ZM80.7955 70.987L79.743 72.2371C79.4853 72.5431 79.0149 72.5431 78.7571 72.2371L77.7045 70.987H80.7955ZM86.4327 84.8721V79.7198C87.4453 81.3098 88.171 83.0235 88.6006 84.8419C87.8961 84.9963 87.1747 85.0059 86.4327 84.8721ZM90.2528 84.1964C89.5468 81.3753 88.1932 78.7901 86.2195 76.4981C85.6881 75.881 84.6744 76.2602 84.6744 77.0716V84.3043C84.2957 84.1319 83.8209 83.8682 83.8079 83.8621C82.6911 83.3365 81.3894 84.1499 81.3894 85.4005V85.4307V95.0825C81.3894 98.7619 82.5271 102.281 84.6744 105.251V111.951H84.6749C84.6749 112.663 84.0955 113.243 83.3832 113.243H81.4207C80.7085 113.243 80.129 112.663 80.129 111.951V93.8875C80.129 93.402 79.7355 93.0086 79.2501 93.0086C78.7647 93.0086 78.3712 93.402 78.3712 93.8875V111.951C78.3712 112.663 77.7918 113.242 77.0795 113.242H75.117C74.4049 113.242 73.8254 112.663 73.8254 111.951V76.8989C73.8254 76.0904 72.8209 75.7125 72.2873 76.3174C69.173 79.8466 67.527 84.1898 67.527 88.8772C67.527 89.8235 66.7542 90.6012 65.7769 90.5779C64.8628 90.5527 64.1215 89.7564 64.1245 88.8027C64.1506 80.4029 68.586 74.9968 71.2278 72.5219C72.2842 71.5321 73.6653 70.987 75.1169 70.987H75.4065L77.4122 73.3692C78.3724 74.5099 80.1287 74.5084 81.0876 73.3692L83.0933 70.987H83.3829C84.7199 70.987 85.9988 71.4869 86.9845 72.3945C88.9316 74.1877 91.5299 77.2228 93.0332 81.6071C92.3638 82.6172 91.343 83.581 90.2528 84.1964Z" fill="#1A1A18"/>
</g>
<defs>
<clipPath id="clip0">
<rect width="60" height="60" fill="white" transform="translate(55 55)"/>
</clipPath>
</defs>
</svg>
