<svg xmlns="http://www.w3.org/2000/svg" width="83" height="46.542"><path d="M30.754 32.676a6.933 6.933 0 106.927 6.938 6.93 6.93 0 00-6.927-6.938zm0 10.4a3.464 3.464 0 113.464-3.464 3.468 3.468 0 01-3.464 3.466zM83 27.551v7.4a3.341 3.341 0 01-3.341 3.341h-3.575a9.168 9.168 0 00-18.142 0h-18.12a9.161 9.161 0 00-18.131 0h-4.477a3.341 3.341 0 01-3.341-3.341v-7.4zm-15.984 5.125a6.933 6.933 0 106.927 6.938 6.939 6.939 0 00-6.927-6.938zm0 10.4a3.464 3.464 0 113.464-3.464 3.467 3.467 0 01-3.464 3.466zM81.683 20.1L68.553 7.114a4.463 4.463 0 00-3.13-1.292H58.8V3.338a3.337 3.337 0 00-3.341-3.341H17.211a3.344 3.344 0 00-3.341 3.341v.524L.312 5.427l24.025 3.128L0 10.973l24.251 3.448L0 16.524l13.871 2.616v6.564H83v-2.439a4.476 4.476 0 00-1.316-3.163zm-5.724.434H63.252a.523.523 0 01-.523-.523v-9.812a.523.523 0 01.523-.524h2.417a.565.565 0 01.368.145l10.28 9.812a.523.523 0 01-.358.905z" fill="#fff"/></svg>