<svg xmlns="http://www.w3.org/2000/svg" width="16" height="13.988"><defs><style>.a{fill:#fff}</style></defs><path class="a" d="M16 5.56C16 2.494 13.025 0 9.369 0S2.738 2.494 2.738 5.56s2.974 5.56 6.631 5.56a8.007 8.007 0 00.919-.053 8.889 8.889 0 003.092 1.456.623.623 0 00.067 0 .614.614 0 00.535-.915 3.184 3.184 0 01-.359-1.783A5.223 5.223 0 0016 5.56zm-8.431.84a.982.982 0 11.982-.982.982.982 0 01-.982.982zm3.6 0a.982.982 0 11.982-.982.982.982 0 01-.981.982z"/><path class="a" d="M4.14 10.009a6.025 6.025 0 01-1.541-1.9 5.161 5.161 0 010-4.752c.029-.058.06-.114.092-.171A4.97 4.97 0 000 7.43a4.85 4.85 0 002.334 4.023 3.458 3.458 0 01-.369 2.229.2.2 0 00.178.306h.023a9.722 9.722 0 003.041-1.473 7.567 7.567 0 001.015.068 7.115 7.115 0 003.51-.9 8.374 8.374 0 01-.673.027 7.7 7.7 0 01-4.919-1.701z"/></svg>