<svg xmlns="http://www.w3.org/2000/svg" width="267" height="44.447"><defs><style>.a{fill:#fff}</style></defs><path class="a" d="M104.105 0a5.348 5.348 0 015.392 6.79l-5.578 26.244h-7.2l2.263-10.642H80.259l-2.261 10.644h-7.113L76.463 6.79A8.828 8.828 0 0184.697 0zm-3.6 15.232l1.5-7.055a.8.8 0 00-.8-1.02h-16.68a1.329 1.329 0 00-1.237 1.02l-1.5 7.055zM222.128 0a5.339 5.339 0 015.347 6.79l-4.137 19.453a8.87 8.87 0 01-8.232 6.791h-19.453c-3.762 0-6.147-3.028-5.348-6.791L194.44 6.79A8.828 8.828 0 01202.674 0zm-23.613 25.877h16.68a1.329 1.329 0 001.237-1.02l3.546-16.68a.8.8 0 00-.8-1.02h-16.684a1.329 1.329 0 00-1.237 1.02l-3.545 16.68a.8.8 0 00.8 1.02zM259.797 0h7.2l-7.022 33.034h-7.338l-13.88-22.115-4.7 22.115h-7.111L233.966 0h7.341l13.809 22.023zM63.524 0H12.858L5.832 9.582h53.786a1.079 1.079 0 011.082 1.374l-1.663 7.823a1.791 1.791 0 01-1.666 1.374h-11.9a12 12 0 00-11.524 8.658l-4.536 15.636h9.582l4.042-14.587H57.19c5.069 0 10.091-4.2 11.156-9.211l2.444-11.5C71.858 4.142 68.593 0 63.524 0z"/><path d="M23.95 20.153l-7 24.294h8.087l7-24.294z" opacity=".7" fill="#fff"/><path d="M14.354 20.153l-7 24.294h5.594l7-24.294z" opacity=".5" fill="#fff"/><path d="M7 20.153L0 44.447h4.1l7-24.294z" opacity=".2" fill="#fff"/><path class="a" d="M142.314.046h-28.977a10.983 10.983 0 011.146 7.805l-5.353 25.188h7.086l2.25-10.6a.191.191 0 00.128.046q.059-.275-.079-.275l9.461-.046 6.616 10.874h9.38c-4.122-6.878-5.438-8.921-6.683-10.874h.322a8.924 8.924 0 008.28-6.79l1.816-8.535a5.367 5.367 0 00-5.393-6.793zm-2.1 8.132l-1.234 5.806a1.329 1.329 0 01-1.237 1.019h-17.7l1.667-7.845h17.7a.8.8 0 01.8 1.02zM150.884 0a10.33 10.33 0 011.425 7.157h10.46l-5.5 25.877h7.157l5.5-25.877h12.938L184.388 0zM29.411 44.45h9.582l4.041-14.59h-2.292a9.452 9.452 0 00-9.078 6.82zM60.7 10.956S64 .046 52.4.046c-.418 0-.82-.018-1.212-.046h-38.33L5.832 9.582h53.786a1.079 1.079 0 011.082 1.374z"/></svg>