<svg xmlns="http://www.w3.org/2000/svg" xmlns:xlink="http://www.w3.org/1999/xlink" width="198" height="32.958"><defs><radialGradient id="a" cx="81.086" cy="70.893" r="19.717" gradientTransform="translate(-.801 -.061) scale(1.069)" gradientUnits="userSpaceOnUse"><stop offset="0" stop-color="#560009"/><stop offset="1" stop-color="#fa0009" stop-opacity="0"/></radialGradient><radialGradient id="b" cx="48.404" cy="-4.639" r="175.767" gradientTransform="matrix(.198 0 0 .198 28.906 -3.719)" xlink:href="#a"/><style>.a{fill:#2a2932}</style></defs><path class="a" d="M77.207 0a3.954 3.954 0 013.985 5.029l-4.143 19.452h-5.345l1.676-7.907H59.494l-1.676 7.907h-5.282l4.143-19.452A6.6 6.6 0 0162.816 0zm-2.689 11.292l1.107-5.219a.6.6 0 00-.6-.759H62.657a1.009 1.009 0 00-.917.759l-1.104 5.219zM164.726 0a3.948 3.948 0 013.958 5.029l-3.068 14.423a6.59 6.59 0 01-6.1 5.029h-14.432a3.935 3.935 0 01-3.954-5.029l3.068-14.423A6.56 6.56 0 01150.303 0zm-17.522 19.2h12.367a1.008 1.008 0 00.917-.759l2.625-12.367a.6.6 0 00-.6-.759h-12.368a1.009 1.009 0 00-.917.759l-2.625 12.366a.616.616 0 00.601.76zM192.655 0H198l-5.219 24.513h-5.44l-10.28-16.384-3.479 16.384H168.3L173.487 0h5.44l10.248 16.321z"/><path d="M47.096 0H9.52L4.333 7.117h39.885a.78.78 0 01.791 1.012l-1.234 5.788a1.312 1.312 0 01-1.234 1.012h-8.824a8.91 8.91 0 00-8.54 6.421l-3.353 11.608h7.117l3-10.817h10.5a8.99 8.99 0 008.292-6.832l1.8-8.54A5.4 5.4 0 0047.096 0z" fill="#fa0009"/><path d="M17.776 14.929l-5.219 18.029h6.01l5.19-18.029z" opacity=".7" fill="#fa0009"/><path d="M10.659 14.929L5.44 32.958h4.175l5.187-18.029z" opacity=".5" fill="#fa0009"/><path d="M5.187 14.929L0 32.958h3.036l5.188-18.029z" opacity=".2" fill="#fa0009"/><path class="a" d="M105.548.032H84.071a8.068 8.068 0 01.854 5.788L80.94 24.482h5.25l1.676-7.844a.156.156 0 00.095.032c.032-.127 0-.19-.063-.19l7.022-.032 4.9 8.065h6.958c-3.068-5.092-4.017-6.611-4.966-8.065h.253a6.6 6.6 0 006.136-5.029l1.36-6.326a4.011 4.011 0 00-4.013-5.061zm-1.55 6.041l-.917 4.3a1.009 1.009 0 01-.917.759H89.04l1.234-5.82H103.4a.616.616 0 01.598.761zM111.905 0a7.515 7.515 0 011.044 5.314h7.749l-4.08 19.2h5.314l4.08-19.2h9.584L136.734 0z"/><path d="M69 80.817h7.117l3-10.817h-1.704a7.012 7.012 0 00-6.737 5.061z" transform="translate(-47.176 -47.859)" fill="url(#a)"/><path d="M54.375 8.129s2.435-8.1-6.168-8.1A8 8 0 0147.322 0H18.887L13.7 7.117h39.885a.78.78 0 01.79 1.012z" transform="translate(-9.367)" fill="url(#b)"/></svg>