<svg xmlns="http://www.w3.org/2000/svg" width="15.395" height="16.502"><path d="M4.513 10.787h8.816a1.819 1.819 0 001.815-1.815V5.223a.042.042 0 000-.02V5.16a.21.21 0 01-.007-.023c0-.007 0-.013-.007-.02s0-.013-.007-.02a.16.16 0 01-.01-.023.072.072 0 00-.01-.016l-.01-.02c0-.007-.007-.01-.01-.016s-.01-.013-.013-.02a.058.058 0 00-.013-.016c0-.007-.01-.01-.013-.016s-.01-.01-.013-.016-.01-.01-.013-.013l-.016-.016c-.007 0-.01-.01-.016-.013s-.013-.01-.02-.013l-.016-.01a.069.069 0 01-.02-.013l-.02-.01-.02-.01-.02-.01c-.007 0-.013 0-.02-.007a.061.061 0 00-.023-.007.142.142 0 01-.016 0 .072.072 0 00-.026 0h-.013L3.589 3.28V1.721a.2.2 0 000-.046.025.025 0 000-.013v-.03c0-.01 0-.016-.007-.026s0-.01 0-.016l-.01-.03v-.013a.1.1 0 00-.013-.026s0-.01-.007-.013a.069.069 0 00-.013-.02c0-.007-.007-.01-.01-.016l-.01-.016c-.003-.006-.01-.013-.013-.02l-.01-.01-.02-.02-.01-.01a.143.143 0 00-.023-.02l-.013-.01c-.007-.007-.013-.01-.02-.016l-.026-.016s-.007 0-.01-.007l-.043-.02L.892.287a.444.444 0 00-.345.819l2.151.908v9.727a1.817 1.817 0 001.582 1.8 1.791 1.791 0 103.328.921 1.758 1.758 0 00-.247-.9h3.992a1.767 1.767 0 00-.247.9 1.792 1.792 0 101.792-1.792H4.513a.928.928 0 01-.927-.927v-1.2a1.836 1.836 0 00.927.244zm2.21 3.67a.9.9 0 11-.9-.9.906.906 0 01.9.895zm7.083 0a.9.9 0 11-.9-.9.906.906 0 01.9.895zm-.477-4.558H4.513a.928.928 0 01-.927-.927v-4.8l10.671 1.47v3.327a.929.929 0 01-.928.93z" stroke="#373741" stroke-width=".5"/></svg>